solid 
   facet normal -1.000000e+00 0.000000e+00 0.000000e+00
      outer loop
         vertex 1.334060e+01 4.097017e+01 3.000000e+00
         vertex 1.334060e+01 4.097017e+01 0.000000e+00
         vertex 1.334060e+01 1.238349e+01 1.484456e+00
      endloop
   endfacet
   facet normal -1.000000e+00 0.000000e+00 0.000000e+00
      outer loop
         vertex 1.334060e+01 -2.902983e+01 0.000000e+00
         vertex 1.334060e+01 -2.902983e+01 3.000000e+00
         vertex 1.334060e+01 -8.291652e-01 1.875122e+00
      endloop
   endfacet
   facet normal -1.000000e+00 0.000000e+00 -0.000000e+00
      outer loop
         vertex 1.334060e+01 -2.488587e+00 3.000000e+00
         vertex 1.334060e+01 -2.086663e+00 4.500000e+00
         vertex 1.334060e+01 -8.291652e-01 4.124878e+00
      endloop
   endfacet
   facet normal -1.000000e+00 0.000000e+00 -0.000000e+00
      outer loop
         vertex 1.334060e+01 -9.885874e-01 5.598076e+00
         vertex 1.334060e+01 5.114126e-01 6.000000e+00
         vertex 1.334060e+01 2.011413e+00 5.598076e+00
      endloop
   endfacet
   facet normal -1.000000e+00 0.000000e+00 0.000000e+00
      outer loop
         vertex 1.334060e+01 3.109489e+00 4.500000e+00
         vertex 1.334060e+01 3.511413e+00 3.000000e+00
         vertex 1.334060e+01 2.155875e+00 3.598535e+00
      endloop
   endfacet
   facet normal -1.000000e+00 0.000000e+00 -0.000000e+00
      outer loop
         vertex 1.334060e+01 8.508489e+00 3.000000e+00
         vertex 1.334060e+01 8.910413e+00 4.500000e+00
         vertex 1.334060e+01 1.016791e+01 4.124878e+00
      endloop
   endfacet
   facet normal -1.000000e+00 0.000000e+00 -0.000000e+00
      outer loop
         vertex 1.334060e+01 1.000849e+01 5.598076e+00
         vertex 1.334060e+01 1.150849e+01 6.000000e+00
         vertex 1.334060e+01 1.300849e+01 5.598076e+00
      endloop
   endfacet
   facet normal -1.000000e+00 0.000000e+00 0.000000e+00
      outer loop
         vertex 1.334060e+01 1.410657e+01 4.500000e+00
         vertex 1.334060e+01 1.450849e+01 3.000000e+00
         vertex 1.334060e+01 1.315295e+01 3.598535e+00
      endloop
   endfacet
   facet normal -1.000000e+00 0.000000e+00 0.000000e+00
      outer loop
         vertex 1.334060e+01 1.016791e+01 4.124878e+00
         vertex 1.334060e+01 9.758489e+00 3.000000e+00
         vertex 1.334060e+01 8.508489e+00 3.000000e+00
      endloop
   endfacet
   facet normal -1.000000e+00 0.000000e+00 0.000000e+00
      outer loop
         vertex 1.334060e+01 1.016791e+01 1.875122e+00
         vertex 1.334060e+01 1.120460e+01 1.276586e+00
         vertex 1.334060e+01 1.386413e+00 1.484456e+00
      endloop
   endfacet
   facet normal -1.000000e+00 0.000000e+00 -0.000000e+00
      outer loop
         vertex 1.334060e+01 1.238349e+01 1.484456e+00
         vertex 1.334060e+01 1.315295e+01 2.401465e+00
         vertex 1.334060e+01 4.097017e+01 3.000000e+00
      endloop
   endfacet
   facet normal -1.000000e+00 0.000000e+00 0.000000e+00
      outer loop
         vertex 1.334060e+01 1.315295e+01 3.598535e+00
         vertex 1.334060e+01 1.238349e+01 4.515544e+00
         vertex 1.334060e+01 1.410657e+01 4.500000e+00
      endloop
   endfacet
   facet normal -1.000000e+00 0.000000e+00 0.000000e+00
      outer loop
         vertex 1.334060e+01 1.120460e+01 4.723413e+00
         vertex 1.334060e+01 1.016791e+01 4.124878e+00
         vertex 1.334060e+01 8.910413e+00 4.500000e+00
      endloop
   endfacet
   facet normal -1.000000e+00 0.000000e+00 0.000000e+00
      outer loop
         vertex 1.334060e+01 -1.238587e+00 3.000000e+00
         vertex 1.334060e+01 -8.291652e-01 1.875122e+00
         vertex 1.334060e+01 -2.488587e+00 3.000000e+00
      endloop
   endfacet
   facet normal -1.000000e+00 0.000000e+00 -0.000000e+00
      outer loop
         vertex 1.334060e+01 2.075283e-01 1.276586e+00
         vertex 1.334060e+01 1.386413e+00 1.484456e+00
         vertex 1.334060e+01 1.120460e+01 1.276586e+00
      endloop
   endfacet
   facet normal -1.000000e+00 0.000000e+00 0.000000e+00
      outer loop
         vertex 1.334060e+01 2.155875e+00 2.401465e+00
         vertex 1.334060e+01 2.155875e+00 3.598535e+00
         vertex 1.334060e+01 3.511413e+00 3.000000e+00
      endloop
   endfacet
   facet normal -1.000000e+00 0.000000e+00 0.000000e+00
      outer loop
         vertex 1.334060e+01 1.386413e+00 4.515544e+00
         vertex 1.334060e+01 2.075283e-01 4.723413e+00
         vertex 1.334060e+01 3.109489e+00 4.500000e+00
      endloop
   endfacet
   facet normal -1.000000e+00 0.000000e+00 0.000000e+00
      outer loop
         vertex 1.334060e+01 1.238349e+01 1.484456e+00
         vertex 1.334060e+01 4.097017e+01 0.000000e+00
         vertex 1.334060e+01 1.120460e+01 1.276586e+00
      endloop
   endfacet
   facet normal -1.000000e+00 0.000000e+00 0.000000e+00
      outer loop
         vertex 1.334060e+01 -2.488587e+00 3.000000e+00
         vertex 1.334060e+01 -8.291652e-01 4.124878e+00
         vertex 1.334060e+01 -1.238587e+00 3.000000e+00
      endloop
   endfacet
   facet normal -1.000000e+00 0.000000e+00 0.000000e+00
      outer loop
         vertex 1.334060e+01 3.109489e+00 4.500000e+00
         vertex 1.334060e+01 2.155875e+00 3.598535e+00
         vertex 1.334060e+01 1.386413e+00 4.515544e+00
      endloop
   endfacet
   facet normal -1.000000e+00 -0.000000e+00 -0.000000e+00
      outer loop
         vertex 1.334060e+01 8.508489e+00 3.000000e+00
         vertex 1.334060e+01 9.758489e+00 3.000000e+00
         vertex 1.334060e+01 1.016791e+01 1.875122e+00
      endloop
   endfacet
   facet normal -1.000000e+00 0.000000e+00 0.000000e+00
      outer loop
         vertex 1.334060e+01 1.410657e+01 4.500000e+00
         vertex 1.334060e+01 1.238349e+01 4.515544e+00
         vertex 1.334060e+01 1.120460e+01 4.723413e+00
      endloop
   endfacet
   facet normal -1.000000e+00 -0.000000e+00 0.000000e+00
      outer loop
         vertex 1.334060e+01 2.075283e-01 1.276586e+00
         vertex 1.334060e+01 1.120460e+01 1.276586e+00
         vertex 1.334060e+01 -2.902983e+01 0.000000e+00
      endloop
   endfacet
   facet normal -1.000000e+00 0.000000e+00 0.000000e+00
      outer loop
         vertex 1.334060e+01 1.120460e+01 1.276586e+00
         vertex 1.334060e+01 4.097017e+01 0.000000e+00
         vertex 1.334060e+01 -2.902983e+01 0.000000e+00
      endloop
   endfacet
   facet normal -1.000000e+00 0.000000e+00 0.000000e+00
      outer loop
         vertex 1.334060e+01 2.075283e-01 1.276586e+00
         vertex 1.334060e+01 -2.902983e+01 0.000000e+00
         vertex 1.334060e+01 -8.291652e-01 1.875122e+00
      endloop
   endfacet
   facet normal -1.000000e+00 -0.000000e+00 -0.000000e+00
      outer loop
         vertex 1.334060e+01 -2.902983e+01 3.000000e+00
         vertex 1.334060e+01 -2.488587e+00 3.000000e+00
         vertex 1.334060e+01 -8.291652e-01 1.875122e+00
      endloop
   endfacet
   facet normal -1.000000e+00 0.000000e+00 0.000000e+00
      outer loop
         vertex 1.334060e+01 2.011413e+00 5.598076e+00
         vertex 1.334060e+01 3.109489e+00 4.500000e+00
         vertex 1.334060e+01 2.075283e-01 4.723413e+00
      endloop
   endfacet
   facet normal -1.000000e+00 0.000000e+00 -0.000000e+00
      outer loop
         vertex 1.334060e+01 8.910413e+00 4.500000e+00
         vertex 1.334060e+01 1.000849e+01 5.598076e+00
         vertex 1.334060e+01 1.120460e+01 4.723413e+00
      endloop
   endfacet
   facet normal -1.000000e+00 -0.000000e+00 0.000000e+00
      outer loop
         vertex 1.334060e+01 1.450849e+01 3.000000e+00
         vertex 1.334060e+01 4.097017e+01 3.000000e+00
         vertex 1.334060e+01 1.315295e+01 2.401465e+00
      endloop
   endfacet
   facet normal -1.000000e+00 0.000000e+00 -0.000000e+00
      outer loop
         vertex 1.334060e+01 1.386413e+00 1.484456e+00
         vertex 1.334060e+01 2.155875e+00 2.401465e+00
         vertex 1.334060e+01 1.016791e+01 1.875122e+00
      endloop
   endfacet
   facet normal -1.000000e+00 0.000000e+00 0.000000e+00
      outer loop
         vertex 1.334060e+01 -8.291652e-01 4.124878e+00
         vertex 1.334060e+01 -2.086663e+00 4.500000e+00
         vertex 1.334060e+01 2.075283e-01 4.723413e+00
      endloop
   endfacet
   facet normal -1.000000e+00 0.000000e+00 -0.000000e+00
      outer loop
         vertex 1.334060e+01 2.155875e+00 2.401465e+00
         vertex 1.334060e+01 3.511413e+00 3.000000e+00
         vertex 1.334060e+01 8.508489e+00 3.000000e+00
      endloop
   endfacet
   facet normal -1.000000e+00 0.000000e+00 0.000000e+00
      outer loop
         vertex 1.334060e+01 2.011413e+00 5.598076e+00
         vertex 1.334060e+01 2.075283e-01 4.723413e+00
         vertex 1.334060e+01 -9.885874e-01 5.598076e+00
      endloop
   endfacet
   facet normal -1.000000e+00 0.000000e+00 0.000000e+00
      outer loop
         vertex 1.334060e+01 1.016791e+01 1.875122e+00
         vertex 1.334060e+01 2.155875e+00 2.401465e+00
         vertex 1.334060e+01 8.508489e+00 3.000000e+00
      endloop
   endfacet
   facet normal -1.000000e+00 0.000000e+00 -0.000000e+00
      outer loop
         vertex 1.334060e+01 -2.086663e+00 4.500000e+00
         vertex 1.334060e+01 -9.885874e-01 5.598076e+00
         vertex 1.334060e+01 2.075283e-01 4.723413e+00
      endloop
   endfacet
   facet normal -1.000000e+00 0.000000e+00 0.000000e+00
      outer loop
         vertex 1.334060e+01 1.315295e+01 2.401465e+00
         vertex 1.334060e+01 1.315295e+01 3.598535e+00
         vertex 1.334060e+01 1.450849e+01 3.000000e+00
      endloop
   endfacet
   facet normal -1.000000e+00 0.000000e+00 0.000000e+00
      outer loop
         vertex 1.334060e+01 1.410657e+01 4.500000e+00
         vertex 1.334060e+01 1.120460e+01 4.723413e+00
         vertex 1.334060e+01 1.300849e+01 5.598076e+00
      endloop
   endfacet
   facet normal -1.000000e+00 -0.000000e+00 0.000000e+00
      outer loop
         vertex 1.334060e+01 1.000849e+01 5.598076e+00
         vertex 1.334060e+01 1.300849e+01 5.598076e+00
         vertex 1.334060e+01 1.120460e+01 4.723413e+00
      endloop
   endfacet
   facet normal 1.000000e+00 0.000000e+00 0.000000e+00
      outer loop
         vertex 1.934060e+01 -2.902983e+01 3.000000e+00
         vertex 1.934060e+01 -2.902983e+01 0.000000e+00
         vertex 1.934060e+01 -8.291652e-01 1.875122e+00
      endloop
   endfacet
   facet normal 1.000000e+00 0.000000e+00 0.000000e+00
      outer loop
         vertex 1.934060e+01 4.097017e+01 0.000000e+00
         vertex 1.934060e+01 4.097017e+01 3.000000e+00
         vertex 1.934060e+01 1.238349e+01 1.484456e+00
      endloop
   endfacet
   facet normal 1.000000e+00 0.000000e+00 0.000000e+00
      outer loop
         vertex 1.934060e+01 1.450849e+01 3.000000e+00
         vertex 1.934060e+01 1.410657e+01 4.500000e+00
         vertex 1.934060e+01 1.315295e+01 3.598535e+00
      endloop
   endfacet
   facet normal 1.000000e+00 0.000000e+00 0.000000e+00
      outer loop
         vertex 1.934060e+01 1.300849e+01 5.598076e+00
         vertex 1.934060e+01 1.150849e+01 6.000000e+00
         vertex 1.934060e+01 1.000849e+01 5.598076e+00
      endloop
   endfacet
   facet normal 1.000000e+00 0.000000e+00 0.000000e+00
      outer loop
         vertex 1.934060e+01 8.910413e+00 4.500000e+00
         vertex 1.934060e+01 8.508489e+00 3.000000e+00
         vertex 1.934060e+01 1.016791e+01 4.124878e+00
      endloop
   endfacet
   facet normal 1.000000e+00 0.000000e+00 0.000000e+00
      outer loop
         vertex 1.934060e+01 3.511413e+00 3.000000e+00
         vertex 1.934060e+01 3.109489e+00 4.500000e+00
         vertex 1.934060e+01 2.155875e+00 3.598535e+00
      endloop
   endfacet
   facet normal 1.000000e+00 0.000000e+00 0.000000e+00
      outer loop
         vertex 1.934060e+01 2.011413e+00 5.598076e+00
         vertex 1.934060e+01 5.114126e-01 6.000000e+00
         vertex 1.934060e+01 -9.885874e-01 5.598076e+00
      endloop
   endfacet
   facet normal 1.000000e+00 0.000000e+00 0.000000e+00
      outer loop
         vertex 1.934060e+01 -2.086663e+00 4.500000e+00
         vertex 1.934060e+01 -2.488587e+00 3.000000e+00
         vertex 1.934060e+01 -8.291652e-01 4.124878e+00
      endloop
   endfacet
   facet normal 1.000000e+00 0.000000e+00 0.000000e+00
      outer loop
         vertex 1.934060e+01 1.016791e+01 1.875122e+00
         vertex 1.934060e+01 9.758489e+00 3.000000e+00
         vertex 1.934060e+01 8.508489e+00 3.000000e+00
      endloop
   endfacet
   facet normal 1.000000e+00 0.000000e+00 0.000000e+00
      outer loop
         vertex 1.934060e+01 1.016791e+01 4.124878e+00
         vertex 1.934060e+01 1.120460e+01 4.723413e+00
         vertex 1.934060e+01 8.910413e+00 4.500000e+00
      endloop
   endfacet
   facet normal 1.000000e+00 0.000000e+00 -0.000000e+00
      outer loop
         vertex 1.934060e+01 1.238349e+01 4.515544e+00
         vertex 1.934060e+01 1.315295e+01 3.598535e+00
         vertex 1.934060e+01 1.410657e+01 4.500000e+00
      endloop
   endfacet
   facet normal 1.000000e+00 0.000000e+00 0.000000e+00
      outer loop
         vertex 1.934060e+01 1.315295e+01 2.401465e+00
         vertex 1.934060e+01 1.238349e+01 1.484456e+00
         vertex 1.934060e+01 4.097017e+01 3.000000e+00
      endloop
   endfacet
   facet normal 1.000000e+00 0.000000e+00 0.000000e+00
      outer loop
         vertex 1.934060e+01 1.120460e+01 1.276586e+00
         vertex 1.934060e+01 1.016791e+01 1.875122e+00
         vertex 1.934060e+01 1.386413e+00 1.484456e+00
      endloop
   endfacet
   facet normal 1.000000e+00 0.000000e+00 0.000000e+00
      outer loop
         vertex 1.934060e+01 -1.238587e+00 3.000000e+00
         vertex 1.934060e+01 -8.291652e-01 4.124878e+00
         vertex 1.934060e+01 -2.488587e+00 3.000000e+00
      endloop
   endfacet
   facet normal 1.000000e+00 -0.000000e+00 -0.000000e+00
      outer loop
         vertex 1.934060e+01 2.075283e-01 4.723413e+00
         vertex 1.934060e+01 1.386413e+00 4.515544e+00
         vertex 1.934060e+01 3.109489e+00 4.500000e+00
      endloop
   endfacet
   facet normal 1.000000e+00 0.000000e+00 0.000000e+00
      outer loop
         vertex 1.934060e+01 2.155875e+00 3.598535e+00
         vertex 1.934060e+01 2.155875e+00 2.401465e+00
         vertex 1.934060e+01 3.511413e+00 3.000000e+00
      endloop
   endfacet
   facet normal 1.000000e+00 0.000000e+00 0.000000e+00
      outer loop
         vertex 1.934060e+01 1.386413e+00 1.484456e+00
         vertex 1.934060e+01 2.075283e-01 1.276586e+00
         vertex 1.934060e+01 1.120460e+01 1.276586e+00
      endloop
   endfacet
   facet normal 1.000000e+00 0.000000e+00 0.000000e+00
      outer loop
         vertex 1.934060e+01 -2.902983e+01 3.000000e+00
         vertex 1.934060e+01 -8.291652e-01 1.875122e+00
         vertex 1.934060e+01 -2.488587e+00 3.000000e+00
      endloop
   endfacet
   facet normal 1.000000e+00 -0.000000e+00 0.000000e+00
      outer loop
         vertex 1.934060e+01 1.300849e+01 5.598076e+00
         vertex 1.934060e+01 1.000849e+01 5.598076e+00
         vertex 1.934060e+01 1.120460e+01 4.723413e+00
      endloop
   endfacet
   facet normal 1.000000e+00 0.000000e+00 0.000000e+00
      outer loop
         vertex 1.934060e+01 2.155875e+00 3.598535e+00
         vertex 1.934060e+01 3.109489e+00 4.500000e+00
         vertex 1.934060e+01 1.386413e+00 4.515544e+00
      endloop
   endfacet
   facet normal 1.000000e+00 0.000000e+00 0.000000e+00
      outer loop
         vertex 1.934060e+01 1.016791e+01 1.875122e+00
         vertex 1.934060e+01 8.508489e+00 3.000000e+00
         vertex 1.934060e+01 2.155875e+00 2.401465e+00
      endloop
   endfacet
   facet normal 1.000000e+00 0.000000e+00 0.000000e+00
      outer loop
         vertex 1.934060e+01 1.238349e+01 4.515544e+00
         vertex 1.934060e+01 1.410657e+01 4.500000e+00
         vertex 1.934060e+01 1.120460e+01 4.723413e+00
      endloop
   endfacet
   facet normal 1.000000e+00 -0.000000e+00 0.000000e+00
      outer loop
         vertex 1.934060e+01 -1.238587e+00 3.000000e+00
         vertex 1.934060e+01 -2.488587e+00 3.000000e+00
         vertex 1.934060e+01 -8.291652e-01 1.875122e+00
      endloop
   endfacet
   facet normal 1.000000e+00 -0.000000e+00 0.000000e+00
      outer loop
         vertex 1.934060e+01 1.120460e+01 1.276586e+00
         vertex 1.934060e+01 2.075283e-01 1.276586e+00
         vertex 1.934060e+01 -2.902983e+01 0.000000e+00
      endloop
   endfacet
   facet normal 1.000000e+00 0.000000e+00 0.000000e+00
      outer loop
         vertex 1.934060e+01 1.016791e+01 1.875122e+00
         vertex 1.934060e+01 2.155875e+00 2.401465e+00
         vertex 1.934060e+01 1.386413e+00 1.484456e+00
      endloop
   endfacet
   facet normal 1.000000e+00 0.000000e+00 0.000000e+00
      outer loop
         vertex 1.934060e+01 -2.902983e+01 0.000000e+00
         vertex 1.934060e+01 2.075283e-01 1.276586e+00
         vertex 1.934060e+01 -8.291652e-01 1.875122e+00
      endloop
   endfacet
   facet normal 1.000000e+00 0.000000e+00 0.000000e+00
      outer loop
         vertex 1.934060e+01 -2.902983e+01 0.000000e+00
         vertex 1.934060e+01 4.097017e+01 0.000000e+00
         vertex 1.934060e+01 1.120460e+01 1.276586e+00
      endloop
   endfacet
   facet normal 1.000000e+00 0.000000e+00 0.000000e+00
      outer loop
         vertex 1.934060e+01 1.410657e+01 4.500000e+00
         vertex 1.934060e+01 1.300849e+01 5.598076e+00
         vertex 1.934060e+01 1.120460e+01 4.723413e+00
      endloop
   endfacet
   facet normal 1.000000e+00 -0.000000e+00 0.000000e+00
      outer loop
         vertex 1.934060e+01 8.508489e+00 3.000000e+00
         vertex 1.934060e+01 3.511413e+00 3.000000e+00
         vertex 1.934060e+01 2.155875e+00 2.401465e+00
      endloop
   endfacet
   facet normal 1.000000e+00 0.000000e+00 0.000000e+00
      outer loop
         vertex 1.934060e+01 -9.885874e-01 5.598076e+00
         vertex 1.934060e+01 -2.086663e+00 4.500000e+00
         vertex 1.934060e+01 2.075283e-01 4.723413e+00
      endloop
   endfacet
   facet normal 1.000000e+00 0.000000e+00 0.000000e+00
      outer loop
         vertex 1.934060e+01 1.315295e+01 3.598535e+00
         vertex 1.934060e+01 1.315295e+01 2.401465e+00
         vertex 1.934060e+01 1.450849e+01 3.000000e+00
      endloop
   endfacet
   facet normal 1.000000e+00 0.000000e+00 0.000000e+00
      outer loop
         vertex 1.934060e+01 -8.291652e-01 4.124878e+00
         vertex 1.934060e+01 2.075283e-01 4.723413e+00
         vertex 1.934060e+01 -2.086663e+00 4.500000e+00
      endloop
   endfacet
   facet normal 1.000000e+00 0.000000e+00 0.000000e+00
      outer loop
         vertex 1.934060e+01 1.016791e+01 4.124878e+00
         vertex 1.934060e+01 8.508489e+00 3.000000e+00
         vertex 1.934060e+01 9.758489e+00 3.000000e+00
      endloop
   endfacet
   facet normal 1.000000e+00 0.000000e+00 0.000000e+00
      outer loop
         vertex 1.934060e+01 1.315295e+01 2.401465e+00
         vertex 1.934060e+01 4.097017e+01 3.000000e+00
         vertex 1.934060e+01 1.450849e+01 3.000000e+00
      endloop
   endfacet
   facet normal 1.000000e+00 0.000000e+00 0.000000e+00
      outer loop
         vertex 1.934060e+01 1.120460e+01 1.276586e+00
         vertex 1.934060e+01 4.097017e+01 0.000000e+00
         vertex 1.934060e+01 1.238349e+01 1.484456e+00
      endloop
   endfacet
   facet normal 1.000000e+00 0.000000e+00 0.000000e+00
      outer loop
         vertex 1.934060e+01 1.000849e+01 5.598076e+00
         vertex 1.934060e+01 8.910413e+00 4.500000e+00
         vertex 1.934060e+01 1.120460e+01 4.723413e+00
      endloop
   endfacet
   facet normal 1.000000e+00 -0.000000e+00 0.000000e+00
      outer loop
         vertex 1.934060e+01 2.011413e+00 5.598076e+00
         vertex 1.934060e+01 -9.885874e-01 5.598076e+00
         vertex 1.934060e+01 2.075283e-01 4.723413e+00
      endloop
   endfacet
   facet normal 1.000000e+00 -0.000000e+00 0.000000e+00
      outer loop
         vertex 1.934060e+01 2.011413e+00 5.598076e+00
         vertex 1.934060e+01 2.075283e-01 4.723413e+00
         vertex 1.934060e+01 3.109489e+00 4.500000e+00
      endloop
   endfacet
   facet normal -0.000000e+00 9.396926e-01 3.420201e-01
      outer loop
         vertex 1.334060e+01 -8.291652e-01 1.875122e+00
         vertex 1.334060e+01 -1.238587e+00 3.000000e+00
         vertex 1.934060e+01 -1.238587e+00 3.000000e+00
      endloop
   endfacet
   facet normal 0.000000e+00 -1.736482e-01 9.848077e-01
      outer loop
         vertex 1.934060e+01 1.386413e+00 1.484456e+00
         vertex 1.334060e+01 1.386413e+00 1.484456e+00
         vertex 1.334060e+01 2.075283e-01 1.276586e+00
      endloop
   endfacet
   facet normal 0.000000e+00 -1.000000e+00 0.000000e+00
      outer loop
         vertex 1.934060e+01 2.155875e+00 3.598535e+00
         vertex 1.334060e+01 2.155875e+00 3.598535e+00
         vertex 1.334060e+01 2.155875e+00 2.401465e+00
      endloop
   endfacet
   facet normal 0.000000e+00 -1.736481e-01 -9.848078e-01
      outer loop
         vertex 1.934060e+01 2.075283e-01 4.723413e+00
         vertex 1.334060e+01 2.075283e-01 4.723413e+00
         vertex 1.334060e+01 1.386413e+00 4.515544e+00
      endloop
   endfacet
   facet normal 0.000000e+00 9.396926e-01 -3.420201e-01
      outer loop
         vertex 1.934060e+01 -1.238587e+00 3.000000e+00
         vertex 1.334060e+01 -1.238587e+00 3.000000e+00
         vertex 1.334060e+01 -8.291652e-01 4.124878e+00
      endloop
   endfacet
   facet normal 0.000000e+00 4.999999e-01 -8.660255e-01
      outer loop
         vertex 1.334060e+01 2.075283e-01 4.723413e+00
         vertex 1.934060e+01 2.075283e-01 4.723413e+00
         vertex 1.934060e+01 -8.291652e-01 4.124878e+00
      endloop
   endfacet
   facet normal -0.000000e+00 -7.660444e-01 -6.427877e-01
      outer loop
         vertex 1.334060e+01 2.155875e+00 3.598535e+00
         vertex 1.934060e+01 2.155875e+00 3.598535e+00
         vertex 1.934060e+01 1.386413e+00 4.515544e+00
      endloop
   endfacet
   facet normal 0.000000e+00 -7.660444e-01 6.427877e-01
      outer loop
         vertex 1.334060e+01 1.386413e+00 1.484456e+00
         vertex 1.934060e+01 1.386413e+00 1.484456e+00
         vertex 1.934060e+01 2.155875e+00 2.401465e+00
      endloop
   endfacet
   facet normal 0.000000e+00 5.000000e-01 8.660254e-01
      outer loop
         vertex 1.334060e+01 -8.291652e-01 1.875122e+00
         vertex 1.934060e+01 -8.291652e-01 1.875122e+00
         vertex 1.934060e+01 2.075283e-01 1.276586e+00
      endloop
   endfacet
   facet normal -0.000000e+00 9.396926e-01 3.420201e-01
      outer loop
         vertex 1.934060e+01 -8.291652e-01 1.875122e+00
         vertex 1.334060e+01 -8.291652e-01 1.875122e+00
         vertex 1.934060e+01 -1.238587e+00 3.000000e+00
      endloop
   endfacet
   facet normal 0.000000e+00 -1.736481e-01 -9.848078e-01
      outer loop
         vertex 1.934060e+01 1.386413e+00 4.515544e+00
         vertex 1.934060e+01 2.075283e-01 4.723413e+00
         vertex 1.334060e+01 1.386413e+00 4.515544e+00
      endloop
   endfacet
   facet normal 0.000000e+00 -7.660444e-01 -6.427877e-01
      outer loop
         vertex 1.334060e+01 1.386413e+00 4.515544e+00
         vertex 1.334060e+01 2.155875e+00 3.598535e+00
         vertex 1.934060e+01 1.386413e+00 4.515544e+00
      endloop
   endfacet
   facet normal -0.000000e+00 5.000000e-01 8.660254e-01
      outer loop
         vertex 1.934060e+01 2.075283e-01 1.276586e+00
         vertex 1.334060e+01 2.075283e-01 1.276586e+00
         vertex 1.334060e+01 -8.291652e-01 1.875122e+00
      endloop
   endfacet
   facet normal 0.000000e+00 4.999999e-01 -8.660255e-01
      outer loop
         vertex 1.934060e+01 -8.291652e-01 4.124878e+00
         vertex 1.334060e+01 -8.291652e-01 4.124878e+00
         vertex 1.334060e+01 2.075283e-01 4.723413e+00
      endloop
   endfacet
   facet normal 0.000000e+00 -1.000000e+00 0.000000e+00
      outer loop
         vertex 1.334060e+01 2.155875e+00 2.401465e+00
         vertex 1.934060e+01 2.155875e+00 2.401465e+00
         vertex 1.934060e+01 2.155875e+00 3.598535e+00
      endloop
   endfacet
   facet normal 0.000000e+00 -1.736482e-01 9.848077e-01
      outer loop
         vertex 1.934060e+01 2.075283e-01 1.276586e+00
         vertex 1.934060e+01 1.386413e+00 1.484456e+00
         vertex 1.334060e+01 2.075283e-01 1.276586e+00
      endloop
   endfacet
   facet normal 0.000000e+00 9.396926e-01 -3.420201e-01
      outer loop
         vertex 1.934060e+01 -1.238587e+00 3.000000e+00
         vertex 1.334060e+01 -8.291652e-01 4.124878e+00
         vertex 1.934060e+01 -8.291652e-01 4.124878e+00
      endloop
   endfacet
   facet normal 0.000000e+00 -7.660444e-01 6.427877e-01
      outer loop
         vertex 1.934060e+01 2.155875e+00 2.401465e+00
         vertex 1.334060e+01 2.155875e+00 2.401465e+00
         vertex 1.334060e+01 1.386413e+00 1.484456e+00
      endloop
   endfacet
   facet normal -0.000000e+00 9.396927e-01 3.420199e-01
      outer loop
         vertex 1.334060e+01 1.016791e+01 1.875122e+00
         vertex 1.334060e+01 9.758489e+00 3.000000e+00
         vertex 1.934060e+01 9.758489e+00 3.000000e+00
      endloop
   endfacet
   facet normal 0.000000e+00 -1.736482e-01 9.848077e-01
      outer loop
         vertex 1.934060e+01 1.238349e+01 1.484456e+00
         vertex 1.334060e+01 1.238349e+01 1.484456e+00
         vertex 1.334060e+01 1.120460e+01 1.276586e+00
      endloop
   endfacet
   facet normal 0.000000e+00 -1.000000e+00 0.000000e+00
      outer loop
         vertex 1.934060e+01 1.315295e+01 3.598535e+00
         vertex 1.334060e+01 1.315295e+01 3.598535e+00
         vertex 1.334060e+01 1.315295e+01 2.401465e+00
      endloop
   endfacet
   facet normal 0.000000e+00 -1.736481e-01 -9.848078e-01
      outer loop
         vertex 1.934060e+01 1.120460e+01 4.723413e+00
         vertex 1.334060e+01 1.120460e+01 4.723413e+00
         vertex 1.334060e+01 1.238349e+01 4.515544e+00
      endloop
   endfacet
   facet normal 0.000000e+00 9.396927e-01 -3.420199e-01
      outer loop
         vertex 1.934060e+01 9.758489e+00 3.000000e+00
         vertex 1.334060e+01 9.758489e+00 3.000000e+00
         vertex 1.334060e+01 1.016791e+01 4.124878e+00
      endloop
   endfacet
   facet normal 0.000000e+00 4.999998e-01 -8.660255e-01
      outer loop
         vertex 1.334060e+01 1.120460e+01 4.723413e+00
         vertex 1.934060e+01 1.120460e+01 4.723413e+00
         vertex 1.934060e+01 1.016791e+01 4.124878e+00
      endloop
   endfacet
   facet normal -0.000000e+00 -7.660442e-01 -6.427879e-01
      outer loop
         vertex 1.334060e+01 1.315295e+01 3.598535e+00
         vertex 1.934060e+01 1.315295e+01 3.598535e+00
         vertex 1.934060e+01 1.238349e+01 4.515544e+00
      endloop
   endfacet
   facet normal 0.000000e+00 -7.660442e-01 6.427879e-01
      outer loop
         vertex 1.334060e+01 1.238349e+01 1.484456e+00
         vertex 1.934060e+01 1.238349e+01 1.484456e+00
         vertex 1.934060e+01 1.315295e+01 2.401465e+00
      endloop
   endfacet
   facet normal 0.000000e+00 5.000000e-01 8.660254e-01
      outer loop
         vertex 1.334060e+01 1.016791e+01 1.875122e+00
         vertex 1.934060e+01 1.016791e+01 1.875122e+00
         vertex 1.934060e+01 1.120460e+01 1.276586e+00
      endloop
   endfacet
   facet normal -0.000000e+00 9.396927e-01 3.420199e-01
      outer loop
         vertex 1.934060e+01 1.016791e+01 1.875122e+00
         vertex 1.334060e+01 1.016791e+01 1.875122e+00
         vertex 1.934060e+01 9.758489e+00 3.000000e+00
      endloop
   endfacet
   facet normal 0.000000e+00 -1.736481e-01 -9.848078e-01
      outer loop
         vertex 1.934060e+01 1.238349e+01 4.515544e+00
         vertex 1.934060e+01 1.120460e+01 4.723413e+00
         vertex 1.334060e+01 1.238349e+01 4.515544e+00
      endloop
   endfacet
   facet normal 0.000000e+00 -7.660442e-01 -6.427879e-01
      outer loop
         vertex 1.334060e+01 1.238349e+01 4.515544e+00
         vertex 1.334060e+01 1.315295e+01 3.598535e+00
         vertex 1.934060e+01 1.238349e+01 4.515544e+00
      endloop
   endfacet
   facet normal -0.000000e+00 5.000000e-01 8.660254e-01
      outer loop
         vertex 1.934060e+01 1.120460e+01 1.276586e+00
         vertex 1.334060e+01 1.120460e+01 1.276586e+00
         vertex 1.334060e+01 1.016791e+01 1.875122e+00
      endloop
   endfacet
   facet normal 0.000000e+00 4.999998e-01 -8.660255e-01
      outer loop
         vertex 1.934060e+01 1.016791e+01 4.124878e+00
         vertex 1.334060e+01 1.016791e+01 4.124878e+00
         vertex 1.334060e+01 1.120460e+01 4.723413e+00
      endloop
   endfacet
   facet normal 0.000000e+00 -1.000000e+00 0.000000e+00
      outer loop
         vertex 1.334060e+01 1.315295e+01 2.401465e+00
         vertex 1.934060e+01 1.315295e+01 2.401465e+00
         vertex 1.934060e+01 1.315295e+01 3.598535e+00
      endloop
   endfacet
   facet normal 0.000000e+00 -1.736482e-01 9.848077e-01
      outer loop
         vertex 1.934060e+01 1.120460e+01 1.276586e+00
         vertex 1.934060e+01 1.238349e+01 1.484456e+00
         vertex 1.334060e+01 1.120460e+01 1.276586e+00
      endloop
   endfacet
   facet normal 0.000000e+00 9.396927e-01 -3.420199e-01
      outer loop
         vertex 1.934060e+01 9.758489e+00 3.000000e+00
         vertex 1.334060e+01 1.016791e+01 4.124878e+00
         vertex 1.934060e+01 1.016791e+01 4.124878e+00
      endloop
   endfacet
   facet normal 0.000000e+00 -7.660442e-01 6.427879e-01
      outer loop
         vertex 1.934060e+01 1.315295e+01 2.401465e+00
         vertex 1.334060e+01 1.315295e+01 2.401465e+00
         vertex 1.334060e+01 1.238349e+01 1.484456e+00
      endloop
   endfacet
   facet normal 2.916289e-16 0.000000e+00 -1.000000e+00
      outer loop
         vertex 1.486339e+01 -2.376936e+01 4.440892e-16
         vertex 1.334060e+01 -2.902983e+01 0.000000e+00
         vertex 1.334060e+01 4.097017e+01 0.000000e+00
      endloop
   endfacet
   facet normal -2.916289e-16 -0.000000e+00 -1.000000e+00
      outer loop
         vertex 1.781781e+01 -2.376936e+01 4.440892e-16
         vertex 1.934060e+01 4.097017e+01 0.000000e+00
         vertex 1.934060e+01 -2.902983e+01 0.000000e+00
      endloop
   endfacet
   facet normal -4.619079e-16 -3.627874e-18 -1.000000e+00
      outer loop
         vertex 1.685363e+01 3.456063e+01 4.440892e-16
         vertex 1.730478e+01 -2.288077e+01 4.440892e-16
         vertex 1.634060e+01 -2.252983e+01 8.881784e-16
      endloop
   endfacet
   facet normal -1.812351e-16 3.195652e-17 -1.000000e+00
      outer loop
         vertex 1.934060e+01 -2.902983e+01 0.000000e+00
         vertex 1.763964e+01 -2.477983e+01 4.440892e-16
         vertex 1.781781e+01 -2.376936e+01 4.440892e-16
      endloop
   endfacet
   facet normal 0.000000e+00 1.236858e-16 -1.000000e+00
      outer loop
         vertex 1.334060e+01 -2.902983e+01 0.000000e+00
         vertex 1.582757e+01 -2.543937e+01 4.440892e-16
         vertex 1.685363e+01 -2.543937e+01 4.440892e-16
      endloop
   endfacet
   facet normal 1.124736e-15 -2.411658e-16 -1.000000e+00
      outer loop
         vertex 1.334060e+01 -2.902983e+01 0.000000e+00
         vertex 1.486339e+01 -2.376936e+01 4.440892e-16
         vertex 1.504156e+01 -2.477983e+01 8.881784e-16
      endloop
   endfacet
   facet normal 9.209920e-16 4.976003e-19 -1.000000e+00
      outer loop
         vertex 1.582757e+01 3.456063e+01 4.440892e-16
         vertex 1.634060e+01 -2.252983e+01 8.881784e-16
         vertex 1.537642e+01 -2.288077e+01 0.000000e+00
      endloop
   endfacet
   facet normal -1.042669e-16 -6.019854e-17 -1.000000e+00
      outer loop
         vertex 1.934060e+01 4.097017e+01 0.000000e+00
         vertex 1.781781e+01 3.623064e+01 4.440892e-16
         vertex 1.730478e+01 3.711923e+01 4.440892e-16
      endloop
   endfacet
   facet normal 0.000000e+00 0.000000e+00 -1.000000e+00
      outer loop
         vertex 1.730478e+01 -2.288077e+01 4.440892e-16
         vertex 1.685363e+01 3.456063e+01 4.440892e-16
         vertex 1.763964e+01 3.522017e+01 4.440892e-16
      endloop
   endfacet
   facet normal -5.548494e-16 1.208902e-17 -1.000000e+00
      outer loop
         vertex 1.537642e+01 -2.288077e+01 0.000000e+00
         vertex 1.504156e+01 3.522017e+01 8.881784e-16
         vertex 1.582757e+01 3.456063e+01 4.440892e-16
      endloop
   endfacet
   facet normal -4.518651e-16 -2.388812e-16 -1.000000e+00
      outer loop
         vertex 1.334060e+01 4.097017e+01 0.000000e+00
         vertex 1.537642e+01 3.711923e+01 0.000000e+00
         vertex 1.486339e+01 3.623064e+01 4.440892e-16
      endloop
   endfacet
   facet normal 2.916289e-16 0.000000e+00 -1.000000e+00
      outer loop
         vertex 1.486339e+01 3.623064e+01 4.440892e-16
         vertex 1.486339e+01 -2.376936e+01 4.440892e-16
         vertex 1.334060e+01 4.097017e+01 0.000000e+00
      endloop
   endfacet
   facet normal -0.000000e+00 -7.778694e-18 -1.000000e+00
      outer loop
         vertex 1.582757e+01 3.456063e+01 4.440892e-16
         vertex 1.685363e+01 3.456063e+01 4.440892e-16
         vertex 1.634060e+01 -2.252983e+01 8.881784e-16
      endloop
   endfacet
   facet normal -2.916808e-16 3.257215e-16 -1.000000e+00
      outer loop
         vertex 1.504156e+01 -2.477983e+01 8.881784e-16
         vertex 1.582757e+01 -2.543937e+01 4.440892e-16
         vertex 1.334060e+01 -2.902983e+01 0.000000e+00
      endloop
   endfacet
   facet normal 0.000000e+00 0.000000e+00 -1.000000e+00
      outer loop
         vertex 1.781781e+01 -2.376936e+01 4.440892e-16
         vertex 1.730478e+01 -2.288077e+01 4.440892e-16
         vertex 1.763964e+01 3.522017e+01 4.440892e-16
      endloop
   endfacet
   facet normal 2.492460e-15 0.000000e+00 -1.000000e+00
      outer loop
         vertex 1.504156e+01 3.522017e+01 8.881784e-16
         vertex 1.486339e+01 -2.376936e+01 4.440892e-16
         vertex 1.486339e+01 3.623064e+01 4.440892e-16
      endloop
   endfacet
   facet normal 0.000000e+00 1.236858e-16 -1.000000e+00
      outer loop
         vertex 1.685363e+01 -2.543937e+01 4.440892e-16
         vertex 1.934060e+01 -2.902983e+01 0.000000e+00
         vertex 1.334060e+01 -2.902983e+01 0.000000e+00
      endloop
   endfacet
   facet normal -6.563613e-17 7.822227e-17 -1.000000e+00
      outer loop
         vertex 1.934060e+01 -2.902983e+01 0.000000e+00
         vertex 1.685363e+01 -2.543937e+01 4.440892e-16
         vertex 1.763964e+01 -2.477983e+01 4.440892e-16
      endloop
   endfacet
   facet normal -4.214643e-16 1.074899e-16 -1.000000e+00
      outer loop
         vertex 1.934060e+01 4.097017e+01 0.000000e+00
         vertex 1.730478e+01 3.711923e+01 4.440892e-16
         vertex 1.634060e+01 3.747017e+01 8.881784e-16
      endloop
   endfacet
   facet normal 7.725274e-16 4.084013e-16 -1.000000e+00
      outer loop
         vertex 1.334060e+01 4.097017e+01 0.000000e+00
         vertex 1.634060e+01 3.747017e+01 8.881784e-16
         vertex 1.537642e+01 3.711923e+01 0.000000e+00
      endloop
   endfacet
   facet normal -2.916289e-16 -0.000000e+00 -1.000000e+00
      outer loop
         vertex 1.781781e+01 -2.376936e+01 4.440892e-16
         vertex 1.781781e+01 3.623064e+01 4.440892e-16
         vertex 1.934060e+01 4.097017e+01 0.000000e+00
      endloop
   endfacet
   facet normal -8.832805e-16 1.019615e-17 -1.000000e+00
      outer loop
         vertex 1.537642e+01 -2.288077e+01 0.000000e+00
         vertex 1.486339e+01 -2.376936e+01 4.440892e-16
         vertex 1.504156e+01 3.522017e+01 8.881784e-16
      endloop
   endfacet
   facet normal 0.000000e+00 -2.537653e-16 -1.000000e+00
      outer loop
         vertex 1.634060e+01 3.747017e+01 8.881784e-16
         vertex 1.334060e+01 4.097017e+01 0.000000e+00
         vertex 1.934060e+01 4.097017e+01 0.000000e+00
      endloop
   endfacet
   facet normal 0.000000e+00 0.000000e+00 -1.000000e+00
      outer loop
         vertex 1.781781e+01 3.623064e+01 4.440892e-16
         vertex 1.781781e+01 -2.376936e+01 4.440892e-16
         vertex 1.763964e+01 3.522017e+01 4.440892e-16
      endloop
   endfacet
   facet normal 0.000000e+00 -1.000000e+00 0.000000e+00
      outer loop
         vertex 1.334060e+01 -2.902983e+01 3.000000e+00
         vertex 1.334060e+01 -2.902983e+01 0.000000e+00
         vertex 1.934060e+01 -2.902983e+01 0.000000e+00
      endloop
   endfacet
   facet normal 0.000000e+00 -1.000000e+00 0.000000e+00
      outer loop
         vertex 1.934060e+01 -2.902983e+01 3.000000e+00
         vertex 1.334060e+01 -2.902983e+01 3.000000e+00
         vertex 1.934060e+01 -2.902983e+01 0.000000e+00
      endloop
   endfacet
   facet normal 0.000000e+00 0.000000e+00 1.000000e+00
      outer loop
         vertex 1.934060e+01 -2.902983e+01 3.000000e+00
         vertex 1.934060e+01 -2.488587e+00 3.000000e+00
         vertex 1.781781e+01 -2.376936e+01 3.000000e+00
      endloop
   endfacet
   facet normal 0.000000e+00 0.000000e+00 1.000000e+00
      outer loop
         vertex 1.334060e+01 -2.488587e+00 3.000000e+00
         vertex 1.334060e+01 -2.902983e+01 3.000000e+00
         vertex 1.486339e+01 -2.376936e+01 3.000000e+00
      endloop
   endfacet
   facet normal 0.000000e+00 0.000000e+00 1.000000e+00
      outer loop
         vertex 1.537642e+01 -2.288077e+01 3.000000e+00
         vertex 1.634060e+01 -2.252983e+01 3.000000e+00
         vertex 1.334060e+01 -2.488587e+00 3.000000e+00
      endloop
   endfacet
   facet normal 0.000000e+00 -0.000000e+00 1.000000e+00
      outer loop
         vertex 1.730478e+01 -2.288077e+01 3.000000e+00
         vertex 1.781781e+01 -2.376936e+01 3.000000e+00
         vertex 1.934060e+01 -2.488587e+00 3.000000e+00
      endloop
   endfacet
   facet normal -0.000000e+00 0.000000e+00 1.000000e+00
      outer loop
         vertex 1.763964e+01 -2.477983e+01 3.000000e+00
         vertex 1.685363e+01 -2.543937e+01 3.000000e+00
         vertex 1.934060e+01 -2.902983e+01 3.000000e+00
      endloop
   endfacet
   facet normal 0.000000e+00 0.000000e+00 1.000000e+00
      outer loop
         vertex 1.582757e+01 -2.543937e+01 3.000000e+00
         vertex 1.504156e+01 -2.477983e+01 3.000000e+00
         vertex 1.334060e+01 -2.902983e+01 3.000000e+00
      endloop
   endfacet
   facet normal 0.000000e+00 0.000000e+00 1.000000e+00
      outer loop
         vertex 1.486339e+01 -2.376936e+01 3.000000e+00
         vertex 1.537642e+01 -2.288077e+01 3.000000e+00
         vertex 1.334060e+01 -2.488587e+00 3.000000e+00
      endloop
   endfacet
   facet normal 0.000000e+00 0.000000e+00 1.000000e+00
      outer loop
         vertex 1.486339e+01 -2.376936e+01 3.000000e+00
         vertex 1.334060e+01 -2.902983e+01 3.000000e+00
         vertex 1.504156e+01 -2.477983e+01 3.000000e+00
      endloop
   endfacet
   facet normal 0.000000e+00 0.000000e+00 1.000000e+00
      outer loop
         vertex 1.763964e+01 -2.477983e+01 3.000000e+00
         vertex 1.934060e+01 -2.902983e+01 3.000000e+00
         vertex 1.781781e+01 -2.376936e+01 3.000000e+00
      endloop
   endfacet
   facet normal -0.000000e+00 0.000000e+00 1.000000e+00
      outer loop
         vertex 1.934060e+01 -2.488587e+00 3.000000e+00
         vertex 1.334060e+01 -2.488587e+00 3.000000e+00
         vertex 1.634060e+01 -2.252983e+01 3.000000e+00
      endloop
   endfacet
   facet normal 0.000000e+00 -0.000000e+00 1.000000e+00
      outer loop
         vertex 1.634060e+01 -2.252983e+01 3.000000e+00
         vertex 1.730478e+01 -2.288077e+01 3.000000e+00
         vertex 1.934060e+01 -2.488587e+00 3.000000e+00
      endloop
   endfacet
   facet normal 0.000000e+00 0.000000e+00 1.000000e+00
      outer loop
         vertex 1.934060e+01 -2.902983e+01 3.000000e+00
         vertex 1.685363e+01 -2.543937e+01 3.000000e+00
         vertex 1.334060e+01 -2.902983e+01 3.000000e+00
      endloop
   endfacet
   facet normal -0.000000e+00 0.000000e+00 1.000000e+00
      outer loop
         vertex 1.685363e+01 -2.543937e+01 3.000000e+00
         vertex 1.582757e+01 -2.543937e+01 3.000000e+00
         vertex 1.334060e+01 -2.902983e+01 3.000000e+00
      endloop
   endfacet
   facet normal 0.000000e+00 9.659258e-01 2.588191e-01
      outer loop
         vertex 1.934060e+01 3.109489e+00 4.500000e+00
         vertex 1.934060e+01 3.511413e+00 3.000000e+00
         vertex 1.334060e+01 3.511413e+00 3.000000e+00
      endloop
   endfacet
   facet normal 0.000000e+00 7.071069e-01 7.071067e-01
      outer loop
         vertex 1.334060e+01 3.109489e+00 4.500000e+00
         vertex 1.334060e+01 2.011413e+00 5.598076e+00
         vertex 1.934060e+01 3.109489e+00 4.500000e+00
      endloop
   endfacet
   facet normal 0.000000e+00 -2.588190e-01 9.659258e-01
      outer loop
         vertex 1.334060e+01 5.114126e-01 6.000000e+00
         vertex 1.334060e+01 -9.885874e-01 5.598076e+00
         vertex 1.934060e+01 -9.885874e-01 5.598076e+00
      endloop
   endfacet
   facet normal 0.000000e+00 -9.659258e-01 2.588191e-01
      outer loop
         vertex 1.334060e+01 -2.086663e+00 4.500000e+00
         vertex 1.334060e+01 -2.488587e+00 3.000000e+00
         vertex 1.934060e+01 -2.488587e+00 3.000000e+00
      endloop
   endfacet
   facet normal 0.000000e+00 -7.071069e-01 7.071067e-01
      outer loop
         vertex 1.934060e+01 -2.086663e+00 4.500000e+00
         vertex 1.934060e+01 -9.885874e-01 5.598076e+00
         vertex 1.334060e+01 -9.885874e-01 5.598076e+00
      endloop
   endfacet
   facet normal 0.000000e+00 2.588190e-01 9.659258e-01
      outer loop
         vertex 1.934060e+01 5.114126e-01 6.000000e+00
         vertex 1.934060e+01 2.011413e+00 5.598076e+00
         vertex 1.334060e+01 2.011413e+00 5.598076e+00
      endloop
   endfacet
   facet normal 0.000000e+00 9.659258e-01 2.588191e-01
      outer loop
         vertex 1.934060e+01 3.109489e+00 4.500000e+00
         vertex 1.334060e+01 3.511413e+00 3.000000e+00
         vertex 1.334060e+01 3.109489e+00 4.500000e+00
      endloop
   endfacet
   facet normal 0.000000e+00 -9.659258e-01 2.588191e-01
      outer loop
         vertex 1.334060e+01 -2.086663e+00 4.500000e+00
         vertex 1.934060e+01 -2.488587e+00 3.000000e+00
         vertex 1.934060e+01 -2.086663e+00 4.500000e+00
      endloop
   endfacet
   facet normal 0.000000e+00 7.071069e-01 7.071067e-01
      outer loop
         vertex 1.334060e+01 2.011413e+00 5.598076e+00
         vertex 1.934060e+01 2.011413e+00 5.598076e+00
         vertex 1.934060e+01 3.109489e+00 4.500000e+00
      endloop
   endfacet
   facet normal -0.000000e+00 2.588190e-01 9.659258e-01
      outer loop
         vertex 1.334060e+01 2.011413e+00 5.598076e+00
         vertex 1.334060e+01 5.114126e-01 6.000000e+00
         vertex 1.934060e+01 5.114126e-01 6.000000e+00
      endloop
   endfacet
   facet normal 0.000000e+00 -2.588190e-01 9.659258e-01
      outer loop
         vertex 1.934060e+01 -9.885874e-01 5.598076e+00
         vertex 1.934060e+01 5.114126e-01 6.000000e+00
         vertex 1.334060e+01 5.114126e-01 6.000000e+00
      endloop
   endfacet
   facet normal 0.000000e+00 -7.071069e-01 7.071067e-01
      outer loop
         vertex 1.334060e+01 -2.086663e+00 4.500000e+00
         vertex 1.934060e+01 -2.086663e+00 4.500000e+00
         vertex 1.334060e+01 -9.885874e-01 5.598076e+00
      endloop
   endfacet
   facet normal 0.000000e+00 0.000000e+00 1.000000e+00
      outer loop
         vertex 1.934060e+01 3.511413e+00 3.000000e+00
         vertex 1.934060e+01 8.508489e+00 3.000000e+00
         vertex 1.334060e+01 8.508489e+00 3.000000e+00
      endloop
   endfacet
   facet normal 0.000000e+00 0.000000e+00 1.000000e+00
      outer loop
         vertex 1.334060e+01 3.511413e+00 3.000000e+00
         vertex 1.934060e+01 3.511413e+00 3.000000e+00
         vertex 1.334060e+01 8.508489e+00 3.000000e+00
      endloop
   endfacet
   facet normal 0.000000e+00 -9.659258e-01 2.588193e-01
      outer loop
         vertex 1.334060e+01 8.910413e+00 4.500000e+00
         vertex 1.334060e+01 8.508489e+00 3.000000e+00
         vertex 1.934060e+01 8.508489e+00 3.000000e+00
      endloop
   endfacet
   facet normal 0.000000e+00 -7.071069e-01 7.071066e-01
      outer loop
         vertex 1.934060e+01 8.910413e+00 4.500000e+00
         vertex 1.934060e+01 1.000849e+01 5.598076e+00
         vertex 1.334060e+01 8.910413e+00 4.500000e+00
      endloop
   endfacet
   facet normal 0.000000e+00 2.588190e-01 9.659258e-01
      outer loop
         vertex 1.934060e+01 1.150849e+01 6.000000e+00
         vertex 1.934060e+01 1.300849e+01 5.598076e+00
         vertex 1.334060e+01 1.300849e+01 5.598076e+00
      endloop
   endfacet
   facet normal 0.000000e+00 9.659259e-01 2.588187e-01
      outer loop
         vertex 1.934060e+01 1.410657e+01 4.500000e+00
         vertex 1.934060e+01 1.450849e+01 3.000000e+00
         vertex 1.334060e+01 1.450849e+01 3.000000e+00
      endloop
   endfacet
   facet normal -0.000000e+00 7.071066e-01 7.071069e-01
      outer loop
         vertex 1.334060e+01 1.410657e+01 4.500000e+00
         vertex 1.334060e+01 1.300849e+01 5.598076e+00
         vertex 1.934060e+01 1.300849e+01 5.598076e+00
      endloop
   endfacet
   facet normal 0.000000e+00 -2.588190e-01 9.659258e-01
      outer loop
         vertex 1.334060e+01 1.150849e+01 6.000000e+00
         vertex 1.334060e+01 1.000849e+01 5.598076e+00
         vertex 1.934060e+01 1.000849e+01 5.598076e+00
      endloop
   endfacet
   facet normal 0.000000e+00 -9.659258e-01 2.588193e-01
      outer loop
         vertex 1.334060e+01 8.910413e+00 4.500000e+00
         vertex 1.934060e+01 8.508489e+00 3.000000e+00
         vertex 1.934060e+01 8.910413e+00 4.500000e+00
      endloop
   endfacet
   facet normal 0.000000e+00 9.659259e-01 2.588187e-01
      outer loop
         vertex 1.934060e+01 1.410657e+01 4.500000e+00
         vertex 1.334060e+01 1.450849e+01 3.000000e+00
         vertex 1.334060e+01 1.410657e+01 4.500000e+00
      endloop
   endfacet
   facet normal 0.000000e+00 -7.071069e-01 7.071066e-01
      outer loop
         vertex 1.934060e+01 1.000849e+01 5.598076e+00
         vertex 1.334060e+01 1.000849e+01 5.598076e+00
         vertex 1.334060e+01 8.910413e+00 4.500000e+00
      endloop
   endfacet
   facet normal 0.000000e+00 -2.588190e-01 9.659258e-01
      outer loop
         vertex 1.934060e+01 1.000849e+01 5.598076e+00
         vertex 1.934060e+01 1.150849e+01 6.000000e+00
         vertex 1.334060e+01 1.150849e+01 6.000000e+00
      endloop
   endfacet
   facet normal -0.000000e+00 2.588190e-01 9.659258e-01
      outer loop
         vertex 1.334060e+01 1.300849e+01 5.598076e+00
         vertex 1.334060e+01 1.150849e+01 6.000000e+00
         vertex 1.934060e+01 1.150849e+01 6.000000e+00
      endloop
   endfacet
   facet normal -0.000000e+00 7.071066e-01 7.071069e-01
      outer loop
         vertex 1.934060e+01 1.410657e+01 4.500000e+00
         vertex 1.334060e+01 1.410657e+01 4.500000e+00
         vertex 1.934060e+01 1.300849e+01 5.598076e+00
      endloop
   endfacet
   facet normal 0.000000e+00 0.000000e+00 1.000000e+00
      outer loop
         vertex 1.334060e+01 4.097017e+01 3.000000e+00
         vertex 1.334060e+01 1.450849e+01 3.000000e+00
         vertex 1.504156e+01 3.522017e+01 3.000000e+00
      endloop
   endfacet
   facet normal 0.000000e+00 0.000000e+00 1.000000e+00
      outer loop
         vertex 1.934060e+01 1.450849e+01 3.000000e+00
         vertex 1.934060e+01 4.097017e+01 3.000000e+00
         vertex 1.763964e+01 3.522017e+01 3.000000e+00
      endloop
   endfacet
   facet normal 0.000000e+00 0.000000e+00 1.000000e+00
      outer loop
         vertex 1.537642e+01 3.711923e+01 3.000000e+00
         vertex 1.634060e+01 3.747017e+01 3.000000e+00
         vertex 1.334060e+01 4.097017e+01 3.000000e+00
      endloop
   endfacet
   facet normal 0.000000e+00 -0.000000e+00 1.000000e+00
      outer loop
         vertex 1.730478e+01 3.711923e+01 3.000000e+00
         vertex 1.781781e+01 3.623064e+01 3.000000e+00
         vertex 1.934060e+01 4.097017e+01 3.000000e+00
      endloop
   endfacet
   facet normal -0.000000e+00 0.000000e+00 1.000000e+00
      outer loop
         vertex 1.763964e+01 3.522017e+01 3.000000e+00
         vertex 1.685363e+01 3.456063e+01 3.000000e+00
         vertex 1.934060e+01 1.450849e+01 3.000000e+00
      endloop
   endfacet
   facet normal 0.000000e+00 0.000000e+00 1.000000e+00
      outer loop
         vertex 1.582757e+01 3.456063e+01 3.000000e+00
         vertex 1.504156e+01 3.522017e+01 3.000000e+00
         vertex 1.334060e+01 1.450849e+01 3.000000e+00
      endloop
   endfacet
   facet normal 0.000000e+00 0.000000e+00 1.000000e+00
      outer loop
         vertex 1.486339e+01 3.623064e+01 3.000000e+00
         vertex 1.537642e+01 3.711923e+01 3.000000e+00
         vertex 1.334060e+01 4.097017e+01 3.000000e+00
      endloop
   endfacet
   facet normal 0.000000e+00 0.000000e+00 1.000000e+00
      outer loop
         vertex 1.763964e+01 3.522017e+01 3.000000e+00
         vertex 1.934060e+01 4.097017e+01 3.000000e+00
         vertex 1.781781e+01 3.623064e+01 3.000000e+00
      endloop
   endfacet
   facet normal 0.000000e+00 0.000000e+00 1.000000e+00
      outer loop
         vertex 1.934060e+01 1.450849e+01 3.000000e+00
         vertex 1.685363e+01 3.456063e+01 3.000000e+00
         vertex 1.334060e+01 1.450849e+01 3.000000e+00
      endloop
   endfacet
   facet normal 0.000000e+00 0.000000e+00 1.000000e+00
      outer loop
         vertex 1.334060e+01 1.450849e+01 3.000000e+00
         vertex 1.685363e+01 3.456063e+01 3.000000e+00
         vertex 1.582757e+01 3.456063e+01 3.000000e+00
      endloop
   endfacet
   facet normal -0.000000e+00 0.000000e+00 1.000000e+00
      outer loop
         vertex 1.934060e+01 4.097017e+01 3.000000e+00
         vertex 1.334060e+01 4.097017e+01 3.000000e+00
         vertex 1.634060e+01 3.747017e+01 3.000000e+00
      endloop
   endfacet
   facet normal 0.000000e+00 0.000000e+00 1.000000e+00
      outer loop
         vertex 1.504156e+01 3.522017e+01 3.000000e+00
         vertex 1.486339e+01 3.623064e+01 3.000000e+00
         vertex 1.334060e+01 4.097017e+01 3.000000e+00
      endloop
   endfacet
   facet normal -0.000000e+00 0.000000e+00 1.000000e+00
      outer loop
         vertex 1.934060e+01 4.097017e+01 3.000000e+00
         vertex 1.634060e+01 3.747017e+01 3.000000e+00
         vertex 1.730478e+01 3.711923e+01 3.000000e+00
      endloop
   endfacet
   facet normal 0.000000e+00 1.000000e+00 -0.000000e+00
      outer loop
         vertex 1.934060e+01 4.097017e+01 3.000000e+00
         vertex 1.934060e+01 4.097017e+01 0.000000e+00
         vertex 1.334060e+01 4.097017e+01 0.000000e+00
      endloop
   endfacet
   facet normal 0.000000e+00 1.000000e+00 0.000000e+00
      outer loop
         vertex 1.334060e+01 4.097017e+01 3.000000e+00
         vertex 1.934060e+01 4.097017e+01 3.000000e+00
         vertex 1.334060e+01 4.097017e+01 0.000000e+00
      endloop
   endfacet
   facet normal 3.420198e-01 -9.396928e-01 0.000000e+00
      outer loop
         vertex 1.537642e+01 -2.288077e+01 0.000000e+00
         vertex 1.634060e+01 -2.252983e+01 8.881784e-16
         vertex 1.634060e+01 -2.252983e+01 3.000000e+00
      endloop
   endfacet
   facet normal 9.848079e-01 1.736476e-01 0.000000e+00
      outer loop
         vertex 1.486339e+01 -2.376936e+01 3.000000e+00
         vertex 1.504156e+01 -2.477983e+01 8.881784e-16
         vertex 1.486339e+01 -2.376936e+01 4.440892e-16
      endloop
   endfacet
   facet normal 0.000000e+00 1.000000e+00 -0.000000e+00
      outer loop
         vertex 1.685363e+01 -2.543937e+01 3.000000e+00
         vertex 1.685363e+01 -2.543937e+01 4.440892e-16
         vertex 1.582757e+01 -2.543937e+01 4.440892e-16
      endloop
   endfacet
   facet normal -9.848079e-01 1.736476e-01 0.000000e+00
      outer loop
         vertex 1.781781e+01 -2.376936e+01 3.000000e+00
         vertex 1.781781e+01 -2.376936e+01 4.440892e-16
         vertex 1.763964e+01 -2.477983e+01 4.440892e-16
      endloop
   endfacet
   facet normal -3.420204e-01 -9.396925e-01 0.000000e+00
      outer loop
         vertex 1.634060e+01 -2.252983e+01 3.000000e+00
         vertex 1.634060e+01 -2.252983e+01 8.881784e-16
         vertex 1.730478e+01 -2.288077e+01 4.440892e-16
      endloop
   endfacet
   facet normal -8.660249e-01 -5.000009e-01 -0.000000e+00
      outer loop
         vertex 1.781781e+01 -2.376936e+01 4.440892e-16
         vertex 1.781781e+01 -2.376936e+01 3.000000e+00
         vertex 1.730478e+01 -2.288077e+01 3.000000e+00
      endloop
   endfacet
   facet normal -6.427868e-01 7.660451e-01 0.000000e+00
      outer loop
         vertex 1.685363e+01 -2.543937e+01 4.440892e-16
         vertex 1.685363e+01 -2.543937e+01 3.000000e+00
         vertex 1.763964e+01 -2.477983e+01 3.000000e+00
      endloop
   endfacet
   facet normal 6.427872e-01 7.660448e-01 0.000000e+00
      outer loop
         vertex 1.504156e+01 -2.477983e+01 8.881784e-16
         vertex 1.504156e+01 -2.477983e+01 3.000000e+00
         vertex 1.582757e+01 -2.543937e+01 3.000000e+00
      endloop
   endfacet
   facet normal 8.660253e-01 -5.000002e-01 0.000000e+00
      outer loop
         vertex 1.486339e+01 -2.376936e+01 4.440892e-16
         vertex 1.537642e+01 -2.288077e+01 3.000000e+00
         vertex 1.486339e+01 -2.376936e+01 3.000000e+00
      endloop
   endfacet
   facet normal 3.420198e-01 -9.396928e-01 0.000000e+00
      outer loop
         vertex 1.537642e+01 -2.288077e+01 3.000000e+00
         vertex 1.537642e+01 -2.288077e+01 0.000000e+00
         vertex 1.634060e+01 -2.252983e+01 3.000000e+00
      endloop
   endfacet
   facet normal -9.848079e-01 1.736476e-01 0.000000e+00
      outer loop
         vertex 1.763964e+01 -2.477983e+01 3.000000e+00
         vertex 1.781781e+01 -2.376936e+01 3.000000e+00
         vertex 1.763964e+01 -2.477983e+01 4.440892e-16
      endloop
   endfacet
   facet normal -6.427868e-01 7.660451e-01 0.000000e+00
      outer loop
         vertex 1.763964e+01 -2.477983e+01 4.440892e-16
         vertex 1.685363e+01 -2.543937e+01 4.440892e-16
         vertex 1.763964e+01 -2.477983e+01 3.000000e+00
      endloop
   endfacet
   facet normal 8.660253e-01 -5.000002e-01 0.000000e+00
      outer loop
         vertex 1.537642e+01 -2.288077e+01 0.000000e+00
         vertex 1.537642e+01 -2.288077e+01 3.000000e+00
         vertex 1.486339e+01 -2.376936e+01 4.440892e-16
      endloop
   endfacet
   facet normal 6.427872e-01 7.660448e-01 -0.000000e+00
      outer loop
         vertex 1.582757e+01 -2.543937e+01 3.000000e+00
         vertex 1.582757e+01 -2.543937e+01 4.440892e-16
         vertex 1.504156e+01 -2.477983e+01 8.881784e-16
      endloop
   endfacet
   facet normal -3.420204e-01 -9.396925e-01 -0.000000e+00
      outer loop
         vertex 1.730478e+01 -2.288077e+01 4.440892e-16
         vertex 1.730478e+01 -2.288077e+01 3.000000e+00
         vertex 1.634060e+01 -2.252983e+01 3.000000e+00
      endloop
   endfacet
   facet normal 9.848079e-01 1.736476e-01 0.000000e+00
      outer loop
         vertex 1.504156e+01 -2.477983e+01 8.881784e-16
         vertex 1.486339e+01 -2.376936e+01 3.000000e+00
         vertex 1.504156e+01 -2.477983e+01 3.000000e+00
      endloop
   endfacet
   facet normal -8.660249e-01 -5.000009e-01 0.000000e+00
      outer loop
         vertex 1.730478e+01 -2.288077e+01 4.440892e-16
         vertex 1.781781e+01 -2.376936e+01 4.440892e-16
         vertex 1.730478e+01 -2.288077e+01 3.000000e+00
      endloop
   endfacet
   facet normal -0.000000e+00 1.000000e+00 0.000000e+00
      outer loop
         vertex 1.582757e+01 -2.543937e+01 4.440892e-16
         vertex 1.582757e+01 -2.543937e+01 3.000000e+00
         vertex 1.685363e+01 -2.543937e+01 3.000000e+00
      endloop
   endfacet
   facet normal 3.420198e-01 -9.396928e-01 0.000000e+00
      outer loop
         vertex 1.537642e+01 3.711923e+01 0.000000e+00
         vertex 1.634060e+01 3.747017e+01 8.881784e-16
         vertex 1.634060e+01 3.747017e+01 3.000000e+00
      endloop
   endfacet
   facet normal 9.848078e-01 1.736479e-01 0.000000e+00
      outer loop
         vertex 1.486339e+01 3.623064e+01 3.000000e+00
         vertex 1.504156e+01 3.522017e+01 8.881784e-16
         vertex 1.486339e+01 3.623064e+01 4.440892e-16
      endloop
   endfacet
   facet normal 0.000000e+00 1.000000e+00 -0.000000e+00
      outer loop
         vertex 1.685363e+01 3.456063e+01 3.000000e+00
         vertex 1.685363e+01 3.456063e+01 4.440892e-16
         vertex 1.582757e+01 3.456063e+01 4.440892e-16
      endloop
   endfacet
   facet normal -9.848078e-01 1.736479e-01 0.000000e+00
      outer loop
         vertex 1.781781e+01 3.623064e+01 3.000000e+00
         vertex 1.781781e+01 3.623064e+01 4.440892e-16
         vertex 1.763964e+01 3.522017e+01 4.440892e-16
      endloop
   endfacet
   facet normal -3.420204e-01 -9.396925e-01 0.000000e+00
      outer loop
         vertex 1.634060e+01 3.747017e+01 3.000000e+00
         vertex 1.634060e+01 3.747017e+01 8.881784e-16
         vertex 1.730478e+01 3.711923e+01 4.440892e-16
      endloop
   endfacet
   facet normal -8.660254e-01 -5.000001e-01 -0.000000e+00
      outer loop
         vertex 1.781781e+01 3.623064e+01 4.440892e-16
         vertex 1.781781e+01 3.623064e+01 3.000000e+00
         vertex 1.730478e+01 3.711923e+01 3.000000e+00
      endloop
   endfacet
   facet normal -6.427868e-01 7.660451e-01 0.000000e+00
      outer loop
         vertex 1.685363e+01 3.456063e+01 4.440892e-16
         vertex 1.685363e+01 3.456063e+01 3.000000e+00
         vertex 1.763964e+01 3.522017e+01 3.000000e+00
      endloop
   endfacet
   facet normal 6.427872e-01 7.660448e-01 0.000000e+00
      outer loop
         vertex 1.504156e+01 3.522017e+01 8.881784e-16
         vertex 1.504156e+01 3.522017e+01 3.000000e+00
         vertex 1.582757e+01 3.456063e+01 3.000000e+00
      endloop
   endfacet
   facet normal 8.660258e-01 -4.999994e-01 0.000000e+00
      outer loop
         vertex 1.486339e+01 3.623064e+01 4.440892e-16
         vertex 1.537642e+01 3.711923e+01 3.000000e+00
         vertex 1.486339e+01 3.623064e+01 3.000000e+00
      endloop
   endfacet
   facet normal 3.420198e-01 -9.396928e-01 0.000000e+00
      outer loop
         vertex 1.537642e+01 3.711923e+01 3.000000e+00
         vertex 1.537642e+01 3.711923e+01 0.000000e+00
         vertex 1.634060e+01 3.747017e+01 3.000000e+00
      endloop
   endfacet
   facet normal -9.848078e-01 1.736479e-01 0.000000e+00
      outer loop
         vertex 1.763964e+01 3.522017e+01 3.000000e+00
         vertex 1.781781e+01 3.623064e+01 3.000000e+00
         vertex 1.763964e+01 3.522017e+01 4.440892e-16
      endloop
   endfacet
   facet normal -6.427868e-01 7.660451e-01 0.000000e+00
      outer loop
         vertex 1.763964e+01 3.522017e+01 4.440892e-16
         vertex 1.685363e+01 3.456063e+01 4.440892e-16
         vertex 1.763964e+01 3.522017e+01 3.000000e+00
      endloop
   endfacet
   facet normal 8.660258e-01 -4.999994e-01 0.000000e+00
      outer loop
         vertex 1.537642e+01 3.711923e+01 0.000000e+00
         vertex 1.537642e+01 3.711923e+01 3.000000e+00
         vertex 1.486339e+01 3.623064e+01 4.440892e-16
      endloop
   endfacet
   facet normal 6.427872e-01 7.660448e-01 -0.000000e+00
      outer loop
         vertex 1.582757e+01 3.456063e+01 3.000000e+00
         vertex 1.582757e+01 3.456063e+01 4.440892e-16
         vertex 1.504156e+01 3.522017e+01 8.881784e-16
      endloop
   endfacet
   facet normal -3.420204e-01 -9.396925e-01 -0.000000e+00
      outer loop
         vertex 1.730478e+01 3.711923e+01 4.440892e-16
         vertex 1.730478e+01 3.711923e+01 3.000000e+00
         vertex 1.634060e+01 3.747017e+01 3.000000e+00
      endloop
   endfacet
   facet normal 9.848078e-01 1.736479e-01 0.000000e+00
      outer loop
         vertex 1.504156e+01 3.522017e+01 8.881784e-16
         vertex 1.486339e+01 3.623064e+01 3.000000e+00
         vertex 1.504156e+01 3.522017e+01 3.000000e+00
      endloop
   endfacet
   facet normal -8.660254e-01 -5.000001e-01 0.000000e+00
      outer loop
         vertex 1.730478e+01 3.711923e+01 4.440892e-16
         vertex 1.781781e+01 3.623064e+01 4.440892e-16
         vertex 1.730478e+01 3.711923e+01 3.000000e+00
      endloop
   endfacet
   facet normal -0.000000e+00 1.000000e+00 0.000000e+00
      outer loop
         vertex 1.582757e+01 3.456063e+01 4.440892e-16
         vertex 1.582757e+01 3.456063e+01 3.000000e+00
         vertex 1.685363e+01 3.456063e+01 3.000000e+00
      endloop
   endfacet
endsolid
