solid 
   facet normal 0.000000e+00 0.000000e+00 -1.000000e+00
      outer loop
         vertex -1.900000e+01 2.326829e-15 -4.000000e+00
         vertex -5.699087e-31 4.653658e-15 -4.000000e+00
         vertex -9.000000e+00 -3.000000e+00 -4.000000e+00
      endloop
   endfacet
   facet normal 0.000000e+00 0.000000e+00 -1.000000e+00
      outer loop
         vertex 3.673940e-16 -3.000000e+00 -4.000000e+00
         vertex -9.000000e+00 -3.000000e+00 -4.000000e+00
         vertex -5.699087e-31 4.653658e-15 -4.000000e+00
      endloop
   endfacet
   facet normal 0.000000e+00 0.000000e+00 -1.000000e+00
      outer loop
         vertex -5.145992e-15 -1.600000e+01 -4.000000e+00
         vertex -4.778599e-15 -1.900000e+01 -4.000000e+00
         vertex -9.000000e+00 -1.600000e+01 -4.000000e+00
      endloop
   endfacet
   facet normal -0.000000e+00 0.000000e+00 -1.000000e+00
      outer loop
         vertex -1.900000e+01 -1.600000e+01 -4.000000e+00
         vertex -1.000000e+01 -1.600000e+01 -4.000000e+00
         vertex -1.900000e+01 -1.900000e+01 -4.000000e+00
      endloop
   endfacet
   facet normal 0.000000e+00 0.000000e+00 -1.000000e+00
      outer loop
         vertex -1.900000e+01 -3.000000e+00 -4.000000e+00
         vertex -1.900000e+01 2.326829e-15 -4.000000e+00
         vertex -1.000000e+01 -3.000000e+00 -4.000000e+00
      endloop
   endfacet
   facet normal 0.000000e+00 -0.000000e+00 -1.000000e+00
      outer loop
         vertex -1.900000e+01 -1.900000e+01 -4.000000e+00
         vertex -1.000000e+01 -1.600000e+01 -4.000000e+00
         vertex -4.778599e-15 -1.900000e+01 -4.000000e+00
      endloop
   endfacet
   facet normal 0.000000e+00 0.000000e+00 -1.000000e+00
      outer loop
         vertex -9.000000e+00 -3.000000e+00 -4.000000e+00
         vertex -9.000000e+00 -1.600000e+01 -4.000000e+00
         vertex -1.000000e+01 -3.000000e+00 -4.000000e+00
      endloop
   endfacet
   facet normal 0.000000e+00 0.000000e+00 -1.000000e+00
      outer loop
         vertex -1.900000e+01 2.326829e-15 -4.000000e+00
         vertex -9.000000e+00 -3.000000e+00 -4.000000e+00
         vertex -1.000000e+01 -3.000000e+00 -4.000000e+00
      endloop
   endfacet
   facet normal 0.000000e+00 0.000000e+00 -1.000000e+00
      outer loop
         vertex -4.778599e-15 -1.900000e+01 -4.000000e+00
         vertex -1.000000e+01 -1.600000e+01 -4.000000e+00
         vertex -9.000000e+00 -1.600000e+01 -4.000000e+00
      endloop
   endfacet
   facet normal 0.000000e+00 0.000000e+00 -1.000000e+00
      outer loop
         vertex -1.000000e+01 -1.600000e+01 -4.000000e+00
         vertex -1.000000e+01 -3.000000e+00 -4.000000e+00
         vertex -9.000000e+00 -1.600000e+01 -4.000000e+00
      endloop
   endfacet
   facet normal 0.000000e+00 0.000000e+00 -1.000000e+00
      outer loop
         vertex -3.000000e+00 -1.150000e+01 0.000000e+00
         vertex -2.786587e-15 -1.600000e+01 0.000000e+00
         vertex -9.000000e+00 -1.600000e+01 0.000000e+00
      endloop
   endfacet
   facet normal 0.000000e+00 0.000000e+00 -1.000000e+00
      outer loop
         vertex -3.000000e+00 -7.500000e+00 0.000000e+00
         vertex -9.000000e+00 -3.000000e+00 0.000000e+00
         vertex -2.449294e-16 -3.000000e+00 0.000000e+00
      endloop
   endfacet
   facet normal 0.000000e+00 0.000000e+00 -1.000000e+00
      outer loop
         vertex -2.449294e-16 -3.000000e+00 0.000000e+00
         vertex -1.824430e+00 -7.881966e+00 0.000000e+00
         vertex -3.000000e+00 -7.500000e+00 0.000000e+00
      endloop
   endfacet
   facet normal 0.000000e+00 0.000000e+00 -1.000000e+00
      outer loop
         vertex -2.449294e-16 -3.000000e+00 0.000000e+00
         vertex -1.097887e+00 -1.011803e+01 0.000000e+00
         vertex -1.097887e+00 -8.881966e+00 0.000000e+00
      endloop
   endfacet
   facet normal 0.000000e+00 0.000000e+00 -1.000000e+00
      outer loop
         vertex -2.786587e-15 -1.600000e+01 0.000000e+00
         vertex -3.000000e+00 -1.150000e+01 0.000000e+00
         vertex -1.824430e+00 -1.111803e+01 0.000000e+00
      endloop
   endfacet
   facet normal 0.000000e+00 -0.000000e+00 -1.000000e+00
      outer loop
         vertex -9.000000e+00 -1.600000e+01 0.000000e+00
         vertex -4.902113e+00 -1.011803e+01 0.000000e+00
         vertex -4.175570e+00 -1.111803e+01 0.000000e+00
      endloop
   endfacet
   facet normal -0.000000e+00 0.000000e+00 -1.000000e+00
      outer loop
         vertex -9.000000e+00 -3.000000e+00 0.000000e+00
         vertex -4.175570e+00 -7.881966e+00 0.000000e+00
         vertex -4.902113e+00 -8.881966e+00 0.000000e+00
      endloop
   endfacet
   facet normal -0.000000e+00 0.000000e+00 -1.000000e+00
      outer loop
         vertex -4.175570e+00 -1.111803e+01 0.000000e+00
         vertex -3.000000e+00 -1.150000e+01 0.000000e+00
         vertex -9.000000e+00 -1.600000e+01 0.000000e+00
      endloop
   endfacet
   facet normal 0.000000e+00 0.000000e+00 -1.000000e+00
      outer loop
         vertex -1.824430e+00 -7.881966e+00 0.000000e+00
         vertex -2.449294e-16 -3.000000e+00 0.000000e+00
         vertex -1.097887e+00 -8.881966e+00 0.000000e+00
      endloop
   endfacet
   facet normal 0.000000e+00 0.000000e+00 -1.000000e+00
      outer loop
         vertex -9.000000e+00 -1.600000e+01 0.000000e+00
         vertex -9.000000e+00 -3.000000e+00 0.000000e+00
         vertex -4.902113e+00 -8.881966e+00 0.000000e+00
      endloop
   endfacet
   facet normal 0.000000e+00 0.000000e+00 -1.000000e+00
      outer loop
         vertex -1.097887e+00 -1.011803e+01 0.000000e+00
         vertex -2.449294e-16 -3.000000e+00 0.000000e+00
         vertex -2.786587e-15 -1.600000e+01 0.000000e+00
      endloop
   endfacet
   facet normal 0.000000e+00 -0.000000e+00 -1.000000e+00
      outer loop
         vertex -9.000000e+00 -1.600000e+01 0.000000e+00
         vertex -4.902113e+00 -8.881966e+00 0.000000e+00
         vertex -4.902113e+00 -1.011803e+01 0.000000e+00
      endloop
   endfacet
   facet normal 0.000000e+00 0.000000e+00 -1.000000e+00
      outer loop
         vertex -4.175570e+00 -7.881966e+00 0.000000e+00
         vertex -9.000000e+00 -3.000000e+00 0.000000e+00
         vertex -3.000000e+00 -7.500000e+00 0.000000e+00
      endloop
   endfacet
   facet normal 0.000000e+00 0.000000e+00 -1.000000e+00
      outer loop
         vertex -2.786587e-15 -1.600000e+01 0.000000e+00
         vertex -1.824430e+00 -1.111803e+01 0.000000e+00
         vertex -1.097887e+00 -1.011803e+01 0.000000e+00
      endloop
   endfacet
   facet normal 0.000000e+00 -1.000000e+00 0.000000e+00
      outer loop
         vertex -2.449294e-16 -3.000000e+00 0.000000e+00
         vertex -9.000000e+00 -3.000000e+00 0.000000e+00
         vertex -9.000000e+00 -3.000000e+00 -4.000000e+00
      endloop
   endfacet
   facet normal 0.000000e+00 -1.000000e+00 -0.000000e+00
      outer loop
         vertex 3.673940e-16 -3.000000e+00 -4.000000e+00
         vertex -2.449294e-16 -3.000000e+00 0.000000e+00
         vertex -9.000000e+00 -3.000000e+00 -4.000000e+00
      endloop
   endfacet
   facet normal 0.000000e+00 1.000000e+00 0.000000e+00
      outer loop
         vertex -5.145992e-15 -1.600000e+01 -4.000000e+00
         vertex -9.000000e+00 -1.600000e+01 -4.000000e+00
         vertex -9.000000e+00 -1.600000e+01 0.000000e+00
      endloop
   endfacet
   facet normal 0.000000e+00 1.000000e+00 -0.000000e+00
      outer loop
         vertex -2.786587e-15 -1.600000e+01 0.000000e+00
         vertex -5.145992e-15 -1.600000e+01 -4.000000e+00
         vertex -9.000000e+00 -1.600000e+01 0.000000e+00
      endloop
   endfacet
   facet normal 1.000000e+00 -0.000000e+00 0.000000e+00
      outer loop
         vertex -9.000000e+00 -3.000000e+00 0.000000e+00
         vertex -9.000000e+00 -1.600000e+01 0.000000e+00
         vertex -9.000000e+00 -3.000000e+00 -4.000000e+00
      endloop
   endfacet
   facet normal 1.000000e+00 0.000000e+00 0.000000e+00
      outer loop
         vertex -9.000000e+00 -1.600000e+01 -4.000000e+00
         vertex -9.000000e+00 -3.000000e+00 -4.000000e+00
         vertex -9.000000e+00 -1.600000e+01 0.000000e+00
      endloop
   endfacet
   facet normal 1.000000e+00 1.224646e-16 -5.898513e-16
      outer loop
         vertex -5.145992e-15 -1.600000e+01 -4.000000e+00
         vertex -2.786587e-15 -1.600000e+01 0.000000e+00
         vertex -4.778599e-15 -1.900000e+01 -4.000000e+00
      endloop
   endfacet
   facet normal 1.000000e+00 1.224647e-16 1.530808e-16
      outer loop
         vertex -2.449294e-16 -3.000000e+00 0.000000e+00
         vertex 3.673940e-16 -3.000000e+00 -4.000000e+00
         vertex -5.699087e-31 4.653658e-15 -4.000000e+00
      endloop
   endfacet
   facet normal 1.000000e+00 -1.224647e-16 -4.135762e-16
      outer loop
         vertex 0.000000e+00 0.000000e+00 2.000000e+00
         vertex -2.326829e-15 -1.900000e+01 2.000000e+00
         vertex -2.786587e-15 -1.600000e+01 0.000000e+00
      endloop
   endfacet
   facet normal 1.000000e+00 -1.191661e-16 -4.086283e-16
      outer loop
         vertex -4.778599e-15 -1.900000e+01 -4.000000e+00
         vertex -2.786587e-15 -1.600000e+01 0.000000e+00
         vertex -2.326829e-15 -1.900000e+01 2.000000e+00
      endloop
   endfacet
   facet normal 1.000000e+00 -1.955121e-16 1.708035e-16
      outer loop
         vertex -2.786587e-15 -1.600000e+01 0.000000e+00
         vertex -2.449294e-16 -3.000000e+00 0.000000e+00
         vertex 0.000000e+00 0.000000e+00 2.000000e+00
      endloop
   endfacet
   facet normal 1.000000e+00 -8.164312e-17 -1.583080e-31
      outer loop
         vertex -2.449294e-16 -3.000000e+00 0.000000e+00
         vertex -5.699087e-31 4.653658e-15 -4.000000e+00
         vertex 0.000000e+00 0.000000e+00 2.000000e+00
      endloop
   endfacet
   facet normal -0.000000e+00 -1.000000e+00 0.000000e+00
      outer loop
         vertex -4.778599e-15 -1.900000e+01 -4.000000e+00
         vertex -2.326829e-15 -1.900000e+01 2.000000e+00
         vertex -1.900000e+01 -1.900000e+01 2.000000e+00
      endloop
   endfacet
   facet normal 0.000000e+00 -1.000000e+00 0.000000e+00
      outer loop
         vertex -1.900000e+01 -1.900000e+01 -4.000000e+00
         vertex -4.778599e-15 -1.900000e+01 -4.000000e+00
         vertex -1.900000e+01 -1.900000e+01 2.000000e+00
      endloop
   endfacet
   facet normal -1.000000e+00 0.000000e+00 0.000000e+00
      outer loop
         vertex -1.900000e+01 -3.000000e+00 -4.000000e+00
         vertex -1.900000e+01 -3.000000e+00 0.000000e+00
         vertex -1.900000e+01 2.326829e-15 -4.000000e+00
      endloop
   endfacet
   facet normal -1.000000e+00 0.000000e+00 0.000000e+00
      outer loop
         vertex -1.900000e+01 -1.600000e+01 0.000000e+00
         vertex -1.900000e+01 -1.600000e+01 -4.000000e+00
         vertex -1.900000e+01 -1.900000e+01 -4.000000e+00
      endloop
   endfacet
   facet normal -1.000000e+00 -0.000000e+00 0.000000e+00
      outer loop
         vertex -1.900000e+01 -1.900000e+01 2.000000e+00
         vertex -1.900000e+01 2.326829e-15 2.000000e+00
         vertex -1.900000e+01 -1.600000e+01 0.000000e+00
      endloop
   endfacet
   facet normal -1.000000e+00 0.000000e+00 0.000000e+00
      outer loop
         vertex -1.900000e+01 2.326829e-15 -4.000000e+00
         vertex -1.900000e+01 -3.000000e+00 0.000000e+00
         vertex -1.900000e+01 2.326829e-15 2.000000e+00
      endloop
   endfacet
   facet normal -1.000000e+00 0.000000e+00 0.000000e+00
      outer loop
         vertex -1.900000e+01 -1.600000e+01 0.000000e+00
         vertex -1.900000e+01 2.326829e-15 2.000000e+00
         vertex -1.900000e+01 -3.000000e+00 0.000000e+00
      endloop
   endfacet
   facet normal -1.000000e+00 0.000000e+00 0.000000e+00
      outer loop
         vertex -1.900000e+01 -1.900000e+01 -4.000000e+00
         vertex -1.900000e+01 -1.900000e+01 2.000000e+00
         vertex -1.900000e+01 -1.600000e+01 0.000000e+00
      endloop
   endfacet
   facet normal 0.000000e+00 1.000000e+00 0.000000e+00
      outer loop
         vertex -1.900000e+01 -1.600000e+01 0.000000e+00
         vertex -1.000000e+01 -1.600000e+01 0.000000e+00
         vertex -1.000000e+01 -1.600000e+01 -4.000000e+00
      endloop
   endfacet
   facet normal 0.000000e+00 1.000000e+00 0.000000e+00
      outer loop
         vertex -1.900000e+01 -1.600000e+01 -4.000000e+00
         vertex -1.900000e+01 -1.600000e+01 0.000000e+00
         vertex -1.000000e+01 -1.600000e+01 -4.000000e+00
      endloop
   endfacet
   facet normal -1.000000e+00 0.000000e+00 0.000000e+00
      outer loop
         vertex -1.000000e+01 -1.600000e+01 -4.000000e+00
         vertex -1.000000e+01 -1.600000e+01 0.000000e+00
         vertex -1.000000e+01 -3.000000e+00 -4.000000e+00
      endloop
   endfacet
   facet normal -1.000000e+00 0.000000e+00 0.000000e+00
      outer loop
         vertex -1.000000e+01 -3.000000e+00 0.000000e+00
         vertex -1.000000e+01 -3.000000e+00 -4.000000e+00
         vertex -1.000000e+01 -1.600000e+01 0.000000e+00
      endloop
   endfacet
   facet normal 0.000000e+00 -1.000000e+00 0.000000e+00
      outer loop
         vertex -1.900000e+01 -3.000000e+00 -4.000000e+00
         vertex -1.000000e+01 -3.000000e+00 -4.000000e+00
         vertex -1.000000e+01 -3.000000e+00 0.000000e+00
      endloop
   endfacet
   facet normal 0.000000e+00 -1.000000e+00 0.000000e+00
      outer loop
         vertex -1.900000e+01 -3.000000e+00 0.000000e+00
         vertex -1.900000e+01 -3.000000e+00 -4.000000e+00
         vertex -1.000000e+01 -3.000000e+00 0.000000e+00
      endloop
   endfacet
   facet normal 1.224647e-16 1.000000e+00 0.000000e+00
      outer loop
         vertex -1.900000e+01 2.326829e-15 -4.000000e+00
         vertex -1.900000e+01 2.326829e-15 2.000000e+00
         vertex 0.000000e+00 0.000000e+00 2.000000e+00
      endloop
   endfacet
   facet normal -1.224647e-16 1.000000e+00 7.756096e-16
      outer loop
         vertex -5.699087e-31 4.653658e-15 -4.000000e+00
         vertex -1.900000e+01 2.326829e-15 -4.000000e+00
         vertex 0.000000e+00 0.000000e+00 2.000000e+00
      endloop
   endfacet
   facet normal 3.090171e-01 -9.510565e-01 0.000000e+00
      outer loop
         vertex -4.175570e+00 -7.881966e+00 0.000000e+00
         vertex -3.000000e+00 -7.500000e+00 0.000000e+00
         vertex -3.000000e+00 -7.500000e+00 2.000000e+00
      endloop
   endfacet
   facet normal 1.000000e+00 0.000000e+00 0.000000e+00
      outer loop
         vertex -4.902113e+00 -1.011803e+01 2.000000e+00
         vertex -4.902113e+00 -1.011803e+01 0.000000e+00
         vertex -4.902113e+00 -8.881966e+00 0.000000e+00
      endloop
   endfacet
   facet normal 3.090167e-01 9.510566e-01 -0.000000e+00
      outer loop
         vertex -3.000000e+00 -1.150000e+01 2.000000e+00
         vertex -3.000000e+00 -1.150000e+01 0.000000e+00
         vertex -4.175570e+00 -1.111803e+01 0.000000e+00
      endloop
   endfacet
   facet normal -8.090170e-01 5.877853e-01 0.000000e+00
      outer loop
         vertex -1.824430e+00 -1.111803e+01 2.000000e+00
         vertex -1.097887e+00 -1.011803e+01 0.000000e+00
         vertex -1.824430e+00 -1.111803e+01 0.000000e+00
      endloop
   endfacet
   facet normal -8.090168e-01 -5.877855e-01 0.000000e+00
      outer loop
         vertex -1.097887e+00 -8.881966e+00 2.000000e+00
         vertex -1.824430e+00 -7.881966e+00 0.000000e+00
         vertex -1.097887e+00 -8.881966e+00 0.000000e+00
      endloop
   endfacet
   facet normal -3.090171e-01 -9.510565e-01 -0.000000e+00
      outer loop
         vertex -1.824430e+00 -7.881966e+00 0.000000e+00
         vertex -3.000000e+00 -7.500000e+00 2.000000e+00
         vertex -3.000000e+00 -7.500000e+00 0.000000e+00
      endloop
   endfacet
   facet normal -1.000000e+00 0.000000e+00 0.000000e+00
      outer loop
         vertex -1.097887e+00 -1.011803e+01 0.000000e+00
         vertex -1.097887e+00 -1.011803e+01 2.000000e+00
         vertex -1.097887e+00 -8.881966e+00 2.000000e+00
      endloop
   endfacet
   facet normal -3.090167e-01 9.510566e-01 0.000000e+00
      outer loop
         vertex -3.000000e+00 -1.150000e+01 0.000000e+00
         vertex -3.000000e+00 -1.150000e+01 2.000000e+00
         vertex -1.824430e+00 -1.111803e+01 2.000000e+00
      endloop
   endfacet
   facet normal 8.090170e-01 5.877852e-01 0.000000e+00
      outer loop
         vertex -4.902113e+00 -1.011803e+01 0.000000e+00
         vertex -4.902113e+00 -1.011803e+01 2.000000e+00
         vertex -4.175570e+00 -1.111803e+01 2.000000e+00
      endloop
   endfacet
   facet normal 8.090169e-01 -5.877854e-01 0.000000e+00
      outer loop
         vertex -4.175570e+00 -7.881966e+00 0.000000e+00
         vertex -4.175570e+00 -7.881966e+00 2.000000e+00
         vertex -4.902113e+00 -8.881966e+00 2.000000e+00
      endloop
   endfacet
   facet normal 3.090171e-01 -9.510565e-01 0.000000e+00
      outer loop
         vertex -4.175570e+00 -7.881966e+00 2.000000e+00
         vertex -4.175570e+00 -7.881966e+00 0.000000e+00
         vertex -3.000000e+00 -7.500000e+00 2.000000e+00
      endloop
   endfacet
   facet normal -3.090167e-01 9.510566e-01 0.000000e+00
      outer loop
         vertex -3.000000e+00 -1.150000e+01 0.000000e+00
         vertex -1.824430e+00 -1.111803e+01 2.000000e+00
         vertex -1.824430e+00 -1.111803e+01 0.000000e+00
      endloop
   endfacet
   facet normal -8.090168e-01 -5.877855e-01 0.000000e+00
      outer loop
         vertex -1.824430e+00 -7.881966e+00 2.000000e+00
         vertex -1.824430e+00 -7.881966e+00 0.000000e+00
         vertex -1.097887e+00 -8.881966e+00 2.000000e+00
      endloop
   endfacet
   facet normal -8.090170e-01 5.877853e-01 0.000000e+00
      outer loop
         vertex -1.824430e+00 -1.111803e+01 2.000000e+00
         vertex -1.097887e+00 -1.011803e+01 2.000000e+00
         vertex -1.097887e+00 -1.011803e+01 0.000000e+00
      endloop
   endfacet
   facet normal 8.090169e-01 -5.877854e-01 0.000000e+00
      outer loop
         vertex -4.902113e+00 -8.881966e+00 2.000000e+00
         vertex -4.902113e+00 -8.881966e+00 0.000000e+00
         vertex -4.175570e+00 -7.881966e+00 0.000000e+00
      endloop
   endfacet
   facet normal -1.000000e+00 0.000000e+00 0.000000e+00
      outer loop
         vertex -1.097887e+00 -8.881966e+00 2.000000e+00
         vertex -1.097887e+00 -8.881966e+00 0.000000e+00
         vertex -1.097887e+00 -1.011803e+01 0.000000e+00
      endloop
   endfacet
   facet normal 3.090167e-01 9.510566e-01 0.000000e+00
      outer loop
         vertex -4.175570e+00 -1.111803e+01 0.000000e+00
         vertex -4.175570e+00 -1.111803e+01 2.000000e+00
         vertex -3.000000e+00 -1.150000e+01 2.000000e+00
      endloop
   endfacet
   facet normal 1.000000e+00 -0.000000e+00 0.000000e+00
      outer loop
         vertex -4.902113e+00 -8.881966e+00 2.000000e+00
         vertex -4.902113e+00 -1.011803e+01 2.000000e+00
         vertex -4.902113e+00 -8.881966e+00 0.000000e+00
      endloop
   endfacet
   facet normal -3.090171e-01 -9.510565e-01 0.000000e+00
      outer loop
         vertex -3.000000e+00 -7.500000e+00 2.000000e+00
         vertex -1.824430e+00 -7.881966e+00 0.000000e+00
         vertex -1.824430e+00 -7.881966e+00 2.000000e+00
      endloop
   endfacet
   facet normal 8.090170e-01 5.877852e-01 -0.000000e+00
      outer loop
         vertex -4.175570e+00 -1.111803e+01 2.000000e+00
         vertex -4.175570e+00 -1.111803e+01 0.000000e+00
         vertex -4.902113e+00 -1.011803e+01 0.000000e+00
      endloop
   endfacet
   facet normal 0.000000e+00 0.000000e+00 1.000000e+00
      outer loop
         vertex 0.000000e+00 0.000000e+00 2.000000e+00
         vertex -1.900000e+01 2.326829e-15 2.000000e+00
         vertex -4.175570e+00 -7.881966e+00 2.000000e+00
      endloop
   endfacet
   facet normal 0.000000e+00 0.000000e+00 1.000000e+00
      outer loop
         vertex -1.900000e+01 -1.900000e+01 2.000000e+00
         vertex -2.326829e-15 -1.900000e+01 2.000000e+00
         vertex -4.175570e+00 -1.111803e+01 2.000000e+00
      endloop
   endfacet
   facet normal 0.000000e+00 -0.000000e+00 1.000000e+00
      outer loop
         vertex -4.175570e+00 -7.881966e+00 2.000000e+00
         vertex -3.000000e+00 -7.500000e+00 2.000000e+00
         vertex 0.000000e+00 0.000000e+00 2.000000e+00
      endloop
   endfacet
   facet normal 0.000000e+00 -0.000000e+00 1.000000e+00
      outer loop
         vertex -1.824430e+00 -7.881966e+00 2.000000e+00
         vertex -1.097887e+00 -8.881966e+00 2.000000e+00
         vertex 0.000000e+00 0.000000e+00 2.000000e+00
      endloop
   endfacet
   facet normal -0.000000e+00 0.000000e+00 1.000000e+00
      outer loop
         vertex -1.097887e+00 -1.011803e+01 2.000000e+00
         vertex -1.824430e+00 -1.111803e+01 2.000000e+00
         vertex -2.326829e-15 -1.900000e+01 2.000000e+00
      endloop
   endfacet
   facet normal 0.000000e+00 0.000000e+00 1.000000e+00
      outer loop
         vertex -3.000000e+00 -1.150000e+01 2.000000e+00
         vertex -4.175570e+00 -1.111803e+01 2.000000e+00
         vertex -2.326829e-15 -1.900000e+01 2.000000e+00
      endloop
   endfacet
   facet normal 0.000000e+00 0.000000e+00 1.000000e+00
      outer loop
         vertex -4.902113e+00 -1.011803e+01 2.000000e+00
         vertex -4.902113e+00 -8.881966e+00 2.000000e+00
         vertex -1.409789e+01 -8.881966e+00 2.000000e+00
      endloop
   endfacet
   facet normal 0.000000e+00 0.000000e+00 1.000000e+00
      outer loop
         vertex -1.717557e+01 -7.881966e+00 2.000000e+00
         vertex -1.600000e+01 -7.500000e+00 2.000000e+00
         vertex -1.900000e+01 2.326829e-15 2.000000e+00
      endloop
   endfacet
   facet normal 0.000000e+00 -0.000000e+00 1.000000e+00
      outer loop
         vertex -1.482443e+01 -7.881966e+00 2.000000e+00
         vertex -1.409789e+01 -8.881966e+00 2.000000e+00
         vertex -4.175570e+00 -7.881966e+00 2.000000e+00
      endloop
   endfacet
   facet normal 0.000000e+00 0.000000e+00 1.000000e+00
      outer loop
         vertex -1.409789e+01 -1.011803e+01 2.000000e+00
         vertex -1.482443e+01 -1.111803e+01 2.000000e+00
         vertex -4.902113e+00 -1.011803e+01 2.000000e+00
      endloop
   endfacet
   facet normal 0.000000e+00 0.000000e+00 1.000000e+00
      outer loop
         vertex -1.600000e+01 -1.150000e+01 2.000000e+00
         vertex -1.717557e+01 -1.111803e+01 2.000000e+00
         vertex -1.900000e+01 -1.900000e+01 2.000000e+00
      endloop
   endfacet
   facet normal 0.000000e+00 0.000000e+00 1.000000e+00
      outer loop
         vertex -1.790211e+01 -1.011803e+01 2.000000e+00
         vertex -1.790211e+01 -8.881966e+00 2.000000e+00
         vertex -1.900000e+01 -1.900000e+01 2.000000e+00
      endloop
   endfacet
   facet normal 0.000000e+00 0.000000e+00 1.000000e+00
      outer loop
         vertex -4.175570e+00 -7.881966e+00 2.000000e+00
         vertex -1.900000e+01 2.326829e-15 2.000000e+00
         vertex -1.482443e+01 -7.881966e+00 2.000000e+00
      endloop
   endfacet
   facet normal -0.000000e+00 0.000000e+00 1.000000e+00
      outer loop
         vertex 0.000000e+00 0.000000e+00 2.000000e+00
         vertex -3.000000e+00 -7.500000e+00 2.000000e+00
         vertex -1.824430e+00 -7.881966e+00 2.000000e+00
      endloop
   endfacet
   facet normal 0.000000e+00 0.000000e+00 1.000000e+00
      outer loop
         vertex -2.326829e-15 -1.900000e+01 2.000000e+00
         vertex -1.824430e+00 -1.111803e+01 2.000000e+00
         vertex -3.000000e+00 -1.150000e+01 2.000000e+00
      endloop
   endfacet
   facet normal 0.000000e+00 0.000000e+00 1.000000e+00
      outer loop
         vertex -1.717557e+01 -7.881966e+00 2.000000e+00
         vertex -1.900000e+01 2.326829e-15 2.000000e+00
         vertex -1.790211e+01 -8.881966e+00 2.000000e+00
      endloop
   endfacet
   facet normal 0.000000e+00 0.000000e+00 1.000000e+00
      outer loop
         vertex -1.409789e+01 -1.011803e+01 2.000000e+00
         vertex -4.902113e+00 -1.011803e+01 2.000000e+00
         vertex -1.409789e+01 -8.881966e+00 2.000000e+00
      endloop
   endfacet
   facet normal 0.000000e+00 0.000000e+00 1.000000e+00
      outer loop
         vertex -1.790211e+01 -1.011803e+01 2.000000e+00
         vertex -1.900000e+01 -1.900000e+01 2.000000e+00
         vertex -1.717557e+01 -1.111803e+01 2.000000e+00
      endloop
   endfacet
   facet normal 0.000000e+00 0.000000e+00 1.000000e+00
      outer loop
         vertex -1.900000e+01 2.326829e-15 2.000000e+00
         vertex -1.900000e+01 -1.900000e+01 2.000000e+00
         vertex -1.790211e+01 -8.881966e+00 2.000000e+00
      endloop
   endfacet
   facet normal 0.000000e+00 0.000000e+00 1.000000e+00
      outer loop
         vertex -1.097887e+00 -8.881966e+00 2.000000e+00
         vertex -1.097887e+00 -1.011803e+01 2.000000e+00
         vertex 0.000000e+00 0.000000e+00 2.000000e+00
      endloop
   endfacet
   facet normal 0.000000e+00 0.000000e+00 1.000000e+00
      outer loop
         vertex -4.902113e+00 -8.881966e+00 2.000000e+00
         vertex -4.175570e+00 -7.881966e+00 2.000000e+00
         vertex -1.409789e+01 -8.881966e+00 2.000000e+00
      endloop
   endfacet
   facet normal -0.000000e+00 0.000000e+00 1.000000e+00
      outer loop
         vertex -1.482443e+01 -1.111803e+01 2.000000e+00
         vertex -1.600000e+01 -1.150000e+01 2.000000e+00
         vertex -1.900000e+01 -1.900000e+01 2.000000e+00
      endloop
   endfacet
   facet normal 0.000000e+00 -0.000000e+00 1.000000e+00
      outer loop
         vertex -1.097887e+00 -1.011803e+01 2.000000e+00
         vertex -2.326829e-15 -1.900000e+01 2.000000e+00
         vertex 0.000000e+00 0.000000e+00 2.000000e+00
      endloop
   endfacet
   facet normal 0.000000e+00 0.000000e+00 1.000000e+00
      outer loop
         vertex -1.482443e+01 -7.881966e+00 2.000000e+00
         vertex -1.900000e+01 2.326829e-15 2.000000e+00
         vertex -1.600000e+01 -7.500000e+00 2.000000e+00
      endloop
   endfacet
   facet normal 0.000000e+00 0.000000e+00 1.000000e+00
      outer loop
         vertex -4.175570e+00 -1.111803e+01 2.000000e+00
         vertex -4.902113e+00 -1.011803e+01 2.000000e+00
         vertex -1.482443e+01 -1.111803e+01 2.000000e+00
      endloop
   endfacet
   facet normal 0.000000e+00 0.000000e+00 1.000000e+00
      outer loop
         vertex -1.482443e+01 -1.111803e+01 2.000000e+00
         vertex -1.900000e+01 -1.900000e+01 2.000000e+00
         vertex -4.175570e+00 -1.111803e+01 2.000000e+00
      endloop
   endfacet
   facet normal 0.000000e+00 0.000000e+00 -1.000000e+00
      outer loop
         vertex -1.600000e+01 -7.500000e+00 0.000000e+00
         vertex -1.900000e+01 -3.000000e+00 0.000000e+00
         vertex -1.000000e+01 -3.000000e+00 0.000000e+00
      endloop
   endfacet
   facet normal 0.000000e+00 0.000000e+00 -1.000000e+00
      outer loop
         vertex -1.600000e+01 -1.150000e+01 0.000000e+00
         vertex -1.000000e+01 -1.600000e+01 0.000000e+00
         vertex -1.900000e+01 -1.600000e+01 0.000000e+00
      endloop
   endfacet
   facet normal 0.000000e+00 0.000000e+00 -1.000000e+00
      outer loop
         vertex -1.000000e+01 -3.000000e+00 0.000000e+00
         vertex -1.482443e+01 -7.881966e+00 0.000000e+00
         vertex -1.600000e+01 -7.500000e+00 0.000000e+00
      endloop
   endfacet
   facet normal 0.000000e+00 0.000000e+00 -1.000000e+00
      outer loop
         vertex -1.000000e+01 -1.600000e+01 0.000000e+00
         vertex -1.409789e+01 -1.011803e+01 0.000000e+00
         vertex -1.409789e+01 -8.881966e+00 0.000000e+00
      endloop
   endfacet
   facet normal 0.000000e+00 0.000000e+00 -1.000000e+00
      outer loop
         vertex -1.000000e+01 -1.600000e+01 0.000000e+00
         vertex -1.600000e+01 -1.150000e+01 0.000000e+00
         vertex -1.482443e+01 -1.111803e+01 0.000000e+00
      endloop
   endfacet
   facet normal 0.000000e+00 -0.000000e+00 -1.000000e+00
      outer loop
         vertex -1.900000e+01 -1.600000e+01 0.000000e+00
         vertex -1.790211e+01 -1.011803e+01 0.000000e+00
         vertex -1.717557e+01 -1.111803e+01 0.000000e+00
      endloop
   endfacet
   facet normal -0.000000e+00 0.000000e+00 -1.000000e+00
      outer loop
         vertex -1.900000e+01 -3.000000e+00 0.000000e+00
         vertex -1.717557e+01 -7.881966e+00 0.000000e+00
         vertex -1.790211e+01 -8.881966e+00 0.000000e+00
      endloop
   endfacet
   facet normal 0.000000e+00 0.000000e+00 -1.000000e+00
      outer loop
         vertex -1.717557e+01 -7.881966e+00 0.000000e+00
         vertex -1.900000e+01 -3.000000e+00 0.000000e+00
         vertex -1.600000e+01 -7.500000e+00 0.000000e+00
      endloop
   endfacet
   facet normal 0.000000e+00 0.000000e+00 -1.000000e+00
      outer loop
         vertex -1.000000e+01 -3.000000e+00 0.000000e+00
         vertex -1.000000e+01 -1.600000e+01 0.000000e+00
         vertex -1.409789e+01 -8.881966e+00 0.000000e+00
      endloop
   endfacet
   facet normal 0.000000e+00 0.000000e+00 -1.000000e+00
      outer loop
         vertex -1.600000e+01 -1.150000e+01 0.000000e+00
         vertex -1.900000e+01 -1.600000e+01 0.000000e+00
         vertex -1.717557e+01 -1.111803e+01 0.000000e+00
      endloop
   endfacet
   facet normal 0.000000e+00 0.000000e+00 -1.000000e+00
      outer loop
         vertex -1.790211e+01 -8.881966e+00 0.000000e+00
         vertex -1.900000e+01 -1.600000e+01 0.000000e+00
         vertex -1.900000e+01 -3.000000e+00 0.000000e+00
      endloop
   endfacet
   facet normal 0.000000e+00 0.000000e+00 -1.000000e+00
      outer loop
         vertex -1.000000e+01 -1.600000e+01 0.000000e+00
         vertex -1.482443e+01 -1.111803e+01 0.000000e+00
         vertex -1.409789e+01 -1.011803e+01 0.000000e+00
      endloop
   endfacet
   facet normal 0.000000e+00 0.000000e+00 -1.000000e+00
      outer loop
         vertex -1.409789e+01 -8.881966e+00 0.000000e+00
         vertex -1.482443e+01 -7.881966e+00 0.000000e+00
         vertex -1.000000e+01 -3.000000e+00 0.000000e+00
      endloop
   endfacet
   facet normal 0.000000e+00 -0.000000e+00 -1.000000e+00
      outer loop
         vertex -1.900000e+01 -1.600000e+01 0.000000e+00
         vertex -1.790211e+01 -8.881966e+00 0.000000e+00
         vertex -1.790211e+01 -1.011803e+01 0.000000e+00
      endloop
   endfacet
   facet normal 3.090168e-01 -9.510566e-01 0.000000e+00
      outer loop
         vertex -1.717557e+01 -7.881966e+00 0.000000e+00
         vertex -1.600000e+01 -7.500000e+00 0.000000e+00
         vertex -1.600000e+01 -7.500000e+00 2.000000e+00
      endloop
   endfacet
   facet normal 1.000000e+00 0.000000e+00 0.000000e+00
      outer loop
         vertex -1.790211e+01 -1.011803e+01 2.000000e+00
         vertex -1.790211e+01 -1.011803e+01 0.000000e+00
         vertex -1.790211e+01 -8.881966e+00 0.000000e+00
      endloop
   endfacet
   facet normal 3.090165e-01 9.510567e-01 -0.000000e+00
      outer loop
         vertex -1.600000e+01 -1.150000e+01 2.000000e+00
         vertex -1.600000e+01 -1.150000e+01 0.000000e+00
         vertex -1.717557e+01 -1.111803e+01 0.000000e+00
      endloop
   endfacet
   facet normal -8.090170e-01 5.877852e-01 0.000000e+00
      outer loop
         vertex -1.482443e+01 -1.111803e+01 2.000000e+00
         vertex -1.409789e+01 -1.011803e+01 0.000000e+00
         vertex -1.482443e+01 -1.111803e+01 0.000000e+00
      endloop
   endfacet
   facet normal -8.090169e-01 -5.877854e-01 0.000000e+00
      outer loop
         vertex -1.409789e+01 -8.881966e+00 2.000000e+00
         vertex -1.482443e+01 -7.881966e+00 0.000000e+00
         vertex -1.409789e+01 -8.881966e+00 0.000000e+00
      endloop
   endfacet
   facet normal -3.090171e-01 -9.510565e-01 -0.000000e+00
      outer loop
         vertex -1.482443e+01 -7.881966e+00 0.000000e+00
         vertex -1.600000e+01 -7.500000e+00 2.000000e+00
         vertex -1.600000e+01 -7.500000e+00 0.000000e+00
      endloop
   endfacet
   facet normal -1.000000e+00 0.000000e+00 0.000000e+00
      outer loop
         vertex -1.409789e+01 -1.011803e+01 0.000000e+00
         vertex -1.409789e+01 -1.011803e+01 2.000000e+00
         vertex -1.409789e+01 -8.881966e+00 2.000000e+00
      endloop
   endfacet
   facet normal -3.090167e-01 9.510566e-01 0.000000e+00
      outer loop
         vertex -1.600000e+01 -1.150000e+01 0.000000e+00
         vertex -1.600000e+01 -1.150000e+01 2.000000e+00
         vertex -1.482443e+01 -1.111803e+01 2.000000e+00
      endloop
   endfacet
   facet normal 8.090174e-01 5.877847e-01 0.000000e+00
      outer loop
         vertex -1.790211e+01 -1.011803e+01 0.000000e+00
         vertex -1.790211e+01 -1.011803e+01 2.000000e+00
         vertex -1.717557e+01 -1.111803e+01 2.000000e+00
      endloop
   endfacet
   facet normal 8.090172e-01 -5.877849e-01 0.000000e+00
      outer loop
         vertex -1.717557e+01 -7.881966e+00 0.000000e+00
         vertex -1.717557e+01 -7.881966e+00 2.000000e+00
         vertex -1.790211e+01 -8.881966e+00 2.000000e+00
      endloop
   endfacet
   facet normal 3.090168e-01 -9.510566e-01 0.000000e+00
      outer loop
         vertex -1.717557e+01 -7.881966e+00 2.000000e+00
         vertex -1.717557e+01 -7.881966e+00 0.000000e+00
         vertex -1.600000e+01 -7.500000e+00 2.000000e+00
      endloop
   endfacet
   facet normal -3.090167e-01 9.510566e-01 0.000000e+00
      outer loop
         vertex -1.600000e+01 -1.150000e+01 0.000000e+00
         vertex -1.482443e+01 -1.111803e+01 2.000000e+00
         vertex -1.482443e+01 -1.111803e+01 0.000000e+00
      endloop
   endfacet
   facet normal -8.090169e-01 -5.877854e-01 0.000000e+00
      outer loop
         vertex -1.482443e+01 -7.881966e+00 2.000000e+00
         vertex -1.482443e+01 -7.881966e+00 0.000000e+00
         vertex -1.409789e+01 -8.881966e+00 2.000000e+00
      endloop
   endfacet
   facet normal -8.090170e-01 5.877852e-01 0.000000e+00
      outer loop
         vertex -1.482443e+01 -1.111803e+01 2.000000e+00
         vertex -1.409789e+01 -1.011803e+01 2.000000e+00
         vertex -1.409789e+01 -1.011803e+01 0.000000e+00
      endloop
   endfacet
   facet normal 8.090172e-01 -5.877849e-01 0.000000e+00
      outer loop
         vertex -1.790211e+01 -8.881966e+00 2.000000e+00
         vertex -1.790211e+01 -8.881966e+00 0.000000e+00
         vertex -1.717557e+01 -7.881966e+00 0.000000e+00
      endloop
   endfacet
   facet normal -1.000000e+00 0.000000e+00 0.000000e+00
      outer loop
         vertex -1.409789e+01 -8.881966e+00 2.000000e+00
         vertex -1.409789e+01 -8.881966e+00 0.000000e+00
         vertex -1.409789e+01 -1.011803e+01 0.000000e+00
      endloop
   endfacet
   facet normal 3.090165e-01 9.510567e-01 0.000000e+00
      outer loop
         vertex -1.717557e+01 -1.111803e+01 0.000000e+00
         vertex -1.717557e+01 -1.111803e+01 2.000000e+00
         vertex -1.600000e+01 -1.150000e+01 2.000000e+00
      endloop
   endfacet
   facet normal 1.000000e+00 -0.000000e+00 0.000000e+00
      outer loop
         vertex -1.790211e+01 -8.881966e+00 2.000000e+00
         vertex -1.790211e+01 -1.011803e+01 2.000000e+00
         vertex -1.790211e+01 -8.881966e+00 0.000000e+00
      endloop
   endfacet
   facet normal -3.090171e-01 -9.510565e-01 0.000000e+00
      outer loop
         vertex -1.600000e+01 -7.500000e+00 2.000000e+00
         vertex -1.482443e+01 -7.881966e+00 0.000000e+00
         vertex -1.482443e+01 -7.881966e+00 2.000000e+00
      endloop
   endfacet
   facet normal 8.090174e-01 5.877847e-01 -0.000000e+00
      outer loop
         vertex -1.717557e+01 -1.111803e+01 2.000000e+00
         vertex -1.717557e+01 -1.111803e+01 0.000000e+00
         vertex -1.790211e+01 -1.011803e+01 0.000000e+00
      endloop
   endfacet
endsolid
